%TF.GenerationSoftware,KiCad,Pcbnew,(6.0.7-1)-1*%
%TF.CreationDate,2022-09-12T14:25:55+08:00*%
%TF.ProjectId,0101-PUSH,30313031-2d50-4555-9348-2e6b69636164,V1.0*%
%TF.SameCoordinates,Original*%
%TF.FileFunction,Legend,Bot*%
%TF.FilePolarity,Positive*%
%FSLAX46Y46*%
G04 Gerber Fmt 4.6, Leading zero omitted, Abs format (unit mm)*
G04 Created by KiCad (PCBNEW (6.0.7-1)-1) date 2022-09-12 14:25:55*
%MOMM*%
%LPD*%
G01*
G04 APERTURE LIST*
%ADD10C,0.120000*%
G04 APERTURE END LIST*
D10*
X15995238Y3738096D02*
X15995238Y3166667D01*
X16033333Y3052381D01*
X16109523Y2976191D01*
X16223809Y2938096D01*
X16300000Y2938096D01*
X15233333Y2938096D02*
X15614285Y2938096D01*
X15614285Y3738096D01*
X14509523Y3014286D02*
X14547619Y2976191D01*
X14661904Y2938096D01*
X14738095Y2938096D01*
X14852380Y2976191D01*
X14928571Y3052381D01*
X14966666Y3128572D01*
X15004761Y3280953D01*
X15004761Y3395239D01*
X14966666Y3547620D01*
X14928571Y3623810D01*
X14852380Y3700000D01*
X14738095Y3738096D01*
X14661904Y3738096D01*
X14547619Y3700000D01*
X14509523Y3661905D01*
X13938095Y3738096D02*
X13938095Y3166667D01*
X13976190Y3052381D01*
X14052380Y2976191D01*
X14166666Y2938096D01*
X14242857Y2938096D01*
X13176190Y2938096D02*
X13557142Y2938096D01*
X13557142Y3738096D01*
X12452380Y3014286D02*
X12490476Y2976191D01*
X12604761Y2938096D01*
X12680952Y2938096D01*
X12795238Y2976191D01*
X12871428Y3052381D01*
X12909523Y3128572D01*
X12947619Y3280953D01*
X12947619Y3395239D01*
X12909523Y3547620D01*
X12871428Y3623810D01*
X12795238Y3700000D01*
X12680952Y3738096D01*
X12604761Y3738096D01*
X12490476Y3700000D01*
X12452380Y3661905D01*
X11880952Y3738096D02*
X11880952Y3166667D01*
X11919047Y3052381D01*
X11995238Y2976191D01*
X12109523Y2938096D01*
X12185714Y2938096D01*
X11119047Y2938096D02*
X11500000Y2938096D01*
X11500000Y3738096D01*
X10395238Y3014286D02*
X10433333Y2976191D01*
X10547619Y2938096D01*
X10623809Y2938096D01*
X10738095Y2976191D01*
X10814285Y3052381D01*
X10852380Y3128572D01*
X10890476Y3280953D01*
X10890476Y3395239D01*
X10852380Y3547620D01*
X10814285Y3623810D01*
X10738095Y3700000D01*
X10623809Y3738096D01*
X10547619Y3738096D01*
X10433333Y3700000D01*
X10395238Y3661905D01*
X9823809Y3738096D02*
X9823809Y3166667D01*
X9861904Y3052381D01*
X9938095Y2976191D01*
X10052380Y2938096D01*
X10128571Y2938096D01*
X9061904Y2938096D02*
X9442857Y2938096D01*
X9442857Y3738096D01*
X8338095Y3014286D02*
X8376190Y2976191D01*
X8490476Y2938096D01*
X8566666Y2938096D01*
X8680952Y2976191D01*
X8757142Y3052381D01*
X8795238Y3128572D01*
X8833333Y3280953D01*
X8833333Y3395239D01*
X8795238Y3547620D01*
X8757142Y3623810D01*
X8680952Y3700000D01*
X8566666Y3738096D01*
X8490476Y3738096D01*
X8376190Y3700000D01*
X8338095Y3661905D01*
M02*
