%TF.GenerationSoftware,KiCad,Pcbnew,6.0.7+dfsg-1~bpo11+1*%
%TF.CreationDate,2022-09-24T09:45:49+00:00*%
%TF.ProjectId,0101-PUSH,30313031-2d50-4555-9348-2e6b69636164,V1.1*%
%TF.SameCoordinates,Original*%
%TF.FileFunction,Copper,L1,Top*%
%TF.FilePolarity,Positive*%
%FSLAX46Y46*%
G04 Gerber Fmt 4.6, Leading zero omitted, Abs format (unit mm)*
G04 Created by KiCad (PCBNEW 6.0.7+dfsg-1~bpo11+1) date 2022-09-24 09:45:49*
%MOMM*%
%LPD*%
G01*
G04 APERTURE LIST*
G04 Aperture macros list*
%AMRoundRect*
0 Rectangle with rounded corners*
0 $1 Rounding radius*
0 $2 $3 $4 $5 $6 $7 $8 $9 X,Y pos of 4 corners*
0 Add a 4 corners polygon primitive as box body*
4,1,4,$2,$3,$4,$5,$6,$7,$8,$9,$2,$3,0*
0 Add four circle primitives for the rounded corners*
1,1,$1+$1,$2,$3*
1,1,$1+$1,$4,$5*
1,1,$1+$1,$6,$7*
1,1,$1+$1,$8,$9*
0 Add four rect primitives between the rounded corners*
20,1,$1+$1,$2,$3,$4,$5,0*
20,1,$1+$1,$4,$5,$6,$7,0*
20,1,$1+$1,$6,$7,$8,$9,0*
20,1,$1+$1,$8,$9,$2,$3,0*%
G04 Aperture macros list end*
%TA.AperFunction,SMDPad,CuDef*%
%ADD10RoundRect,0.140000X0.170000X-0.140000X0.170000X0.140000X-0.170000X0.140000X-0.170000X-0.140000X0*%
%TD*%
%TA.AperFunction,SMDPad,CuDef*%
%ADD11RoundRect,0.218750X0.256250X-0.218750X0.256250X0.218750X-0.256250X0.218750X-0.256250X-0.218750X0*%
%TD*%
%TA.AperFunction,ComponentPad*%
%ADD12R,1.700000X1.700000*%
%TD*%
%TA.AperFunction,ComponentPad*%
%ADD13O,1.700000X1.700000*%
%TD*%
%TA.AperFunction,SMDPad,CuDef*%
%ADD14RoundRect,0.200000X-0.275000X0.200000X-0.275000X-0.200000X0.275000X-0.200000X0.275000X0.200000X0*%
%TD*%
%TA.AperFunction,SMDPad,CuDef*%
%ADD15RoundRect,0.200000X0.275000X-0.200000X0.275000X0.200000X-0.275000X0.200000X-0.275000X-0.200000X0*%
%TD*%
%TA.AperFunction,SMDPad,CuDef*%
%ADD16RoundRect,0.135000X-0.135000X-0.185000X0.135000X-0.185000X0.135000X0.185000X-0.135000X0.185000X0*%
%TD*%
%TA.AperFunction,ComponentPad*%
%ADD17R,1.300000X1.300000*%
%TD*%
%TA.AperFunction,ComponentPad*%
%ADD18C,1.400000*%
%TD*%
%TA.AperFunction,ViaPad*%
%ADD19C,0.500000*%
%TD*%
%TA.AperFunction,Conductor*%
%ADD20C,0.200000*%
%TD*%
%TA.AperFunction,Conductor*%
%ADD21C,0.350000*%
%TD*%
G04 APERTURE END LIST*
D10*
%TO.P,C1,1*%
%TO.N,/KEY*%
X18300000Y4400000D03*
%TO.P,C1,2*%
%TO.N,GND*%
X18300000Y5360000D03*
%TD*%
D11*
%TO.P,D1,1,K*%
%TO.N,GND*%
X3800000Y4012500D03*
%TO.P,D1,2,A*%
%TO.N,Net-(D1-Pad2)*%
X3800000Y5587500D03*
%TD*%
D12*
%TO.P,J1,1,Pin_1*%
%TO.N,VCC*%
X7260000Y15800000D03*
D13*
%TO.P,J1,2,Pin_2*%
%TO.N,/KEY*%
X9800000Y15800000D03*
%TO.P,J1,3,Pin_3*%
%TO.N,GND*%
X12340000Y15800000D03*
%TD*%
D14*
%TO.P,R1,1*%
%TO.N,VCC*%
X15300000Y6050000D03*
%TO.P,R1,2*%
%TO.N,/KEY*%
X15300000Y4400000D03*
%TD*%
D15*
%TO.P,R2,1*%
%TO.N,/KEY*%
X16800000Y4400000D03*
%TO.P,R2,2*%
%TO.N,GND*%
X16800000Y6050000D03*
%TD*%
%TO.P,R3,1*%
%TO.N,VCC*%
X15300000Y8550000D03*
%TO.P,R3,2*%
%TO.N,Net-(R3-Pad2)*%
X15300000Y10200000D03*
%TD*%
D14*
%TO.P,R4,1*%
%TO.N,Net-(R3-Pad2)*%
X16800000Y10200000D03*
%TO.P,R4,2*%
%TO.N,GND*%
X16800000Y8550000D03*
%TD*%
D16*
%TO.P,R5,1*%
%TO.N,Net-(D1-Pad2)*%
X3800000Y7300000D03*
%TO.P,R5,2*%
%TO.N,Net-(R5-Pad2)*%
X4820000Y7300000D03*
%TD*%
D17*
%TO.P,SW1,1,A*%
%TO.N,unconnected-(SW1-Pad1)*%
X12500000Y4800000D03*
D18*
%TO.P,SW1,2,B*%
%TO.N,/KEY*%
X12500000Y7300000D03*
%TO.P,SW1,3,C*%
%TO.N,Net-(R3-Pad2)*%
X12500000Y9800000D03*
%TO.P,SW1,4,A*%
%TO.N,unconnected-(SW1-Pad4)*%
X7100000Y4800000D03*
%TO.P,SW1,5,B*%
%TO.N,Net-(R5-Pad2)*%
X7100000Y7300000D03*
%TO.P,SW1,6,C*%
%TO.N,VCC*%
X7100000Y9800000D03*
%TD*%
D19*
%TO.N,GND*%
X18300000Y6300000D03*
X14400000Y9400000D03*
X17800000Y16800000D03*
X14400000Y7300000D03*
X8800000Y9800000D03*
X10300000Y7300000D03*
X18300000Y8300000D03*
X8800000Y10800000D03*
X1800000Y14300000D03*
X10800000Y10800000D03*
X11800000Y18300000D03*
X16800000Y1800000D03*
X2800000Y15300000D03*
X18300000Y7300000D03*
X17800000Y17800000D03*
X6800000Y18300000D03*
X2800000Y14300000D03*
X9300000Y7300000D03*
X3300000Y2800000D03*
X16800000Y17800000D03*
X4300000Y2800000D03*
X7800000Y18300000D03*
X17800000Y1800000D03*
X16800000Y16800000D03*
X1800000Y15300000D03*
X12800000Y18300000D03*
%TD*%
D20*
%TO.N,/KEY*%
X13900000Y5900000D02*
X12500000Y7300000D01*
X14300000Y4400000D02*
X13900000Y4800000D01*
X13900000Y4800000D02*
X13900000Y5900000D01*
X18300000Y4400000D02*
X14300000Y4400000D01*
D21*
%TO.N,Net-(D1-Pad2)*%
X3800000Y7300000D02*
X3800000Y5587500D01*
%TO.N,VCC*%
X7100000Y15140000D02*
X7260000Y15300000D01*
D20*
X8350000Y8550000D02*
X7100000Y9800000D01*
X15300000Y8550000D02*
X8350000Y8550000D01*
X15300000Y6050000D02*
X15300000Y8550000D01*
%TO.N,Net-(R3-Pad2)*%
X14300000Y10200000D02*
X13900000Y9800000D01*
X13900000Y9800000D02*
X12500000Y9800000D01*
X16800000Y10200000D02*
X14300000Y10200000D01*
D21*
%TO.N,Net-(R5-Pad2)*%
X4820000Y7300000D02*
X7100000Y7300000D01*
%TD*%
%TA.AperFunction,Conductor*%
%TO.N,GND*%
G36*
X8553332Y19429498D02*
G01*
X8599825Y19375842D01*
X8601115Y19372667D01*
X8601476Y19371320D01*
X8687324Y19181795D01*
X8690190Y19177505D01*
X8746090Y19093828D01*
X8802901Y19008786D01*
X8945119Y18856918D01*
X9110178Y18730247D01*
X9293668Y18632159D01*
X9298545Y18630503D01*
X9298548Y18630502D01*
X9485802Y18566931D01*
X9490686Y18565273D01*
X9695969Y18531377D01*
X9904031Y18531377D01*
X10109314Y18565273D01*
X10114198Y18566931D01*
X10301452Y18630502D01*
X10301455Y18630503D01*
X10306332Y18632159D01*
X10489822Y18730247D01*
X10654881Y18856918D01*
X10797099Y19008786D01*
X10853911Y19093828D01*
X10909810Y19177505D01*
X10912676Y19181795D01*
X10963341Y19293646D01*
X10998524Y19371320D01*
X10999686Y19370793D01*
X11037922Y19423337D01*
X11104100Y19449046D01*
X11114789Y19449500D01*
X18763598Y19449500D01*
X18771315Y19448484D01*
X18783978Y19448484D01*
X18800000Y19444191D01*
X18813583Y19447830D01*
X18816043Y19447692D01*
X18930420Y19434805D01*
X18957928Y19428526D01*
X19068407Y19389868D01*
X19093820Y19377631D01*
X19192943Y19315349D01*
X19214998Y19297759D01*
X19297759Y19214998D01*
X19315349Y19192943D01*
X19377631Y19093820D01*
X19389868Y19068407D01*
X19428526Y18957928D01*
X19434805Y18930420D01*
X19447692Y18816043D01*
X19447830Y18813583D01*
X19444191Y18800000D01*
X19448484Y18783978D01*
X19448484Y18771315D01*
X19449500Y18763598D01*
X19449501Y14903449D01*
X19449501Y11114788D01*
X19429499Y11046667D01*
X19375843Y11000174D01*
X19372663Y10998882D01*
X19371322Y10998523D01*
X19181796Y10912676D01*
X19177506Y10909810D01*
X19013075Y10799964D01*
X19013071Y10799961D01*
X19008787Y10797099D01*
X18856919Y10654881D01*
X18730248Y10489822D01*
X18632160Y10306332D01*
X18630504Y10301455D01*
X18630503Y10301452D01*
X18576219Y10141554D01*
X18565274Y10109314D01*
X18531378Y9904031D01*
X18531378Y9695969D01*
X18565274Y9490686D01*
X18566932Y9485803D01*
X18566932Y9485802D01*
X18607161Y9367306D01*
X18632160Y9293668D01*
X18730248Y9110178D01*
X18856919Y8945119D01*
X19008787Y8802901D01*
X19013071Y8800039D01*
X19013075Y8800036D01*
X19124135Y8725844D01*
X19181796Y8687324D01*
X19186495Y8685196D01*
X19186496Y8685195D01*
X19371322Y8601477D01*
X19370794Y8600312D01*
X19423333Y8562085D01*
X19449046Y8495908D01*
X19449501Y8485212D01*
X19449500Y4660406D01*
X19449500Y836402D01*
X19448484Y828685D01*
X19448484Y816022D01*
X19444191Y800000D01*
X19447830Y786417D01*
X19447692Y783957D01*
X19434805Y669580D01*
X19428526Y642072D01*
X19389868Y531593D01*
X19377631Y506180D01*
X19315349Y407057D01*
X19297759Y385002D01*
X19214998Y302241D01*
X19192943Y284651D01*
X19093820Y222369D01*
X19068407Y210132D01*
X18957928Y171474D01*
X18930420Y165195D01*
X18816043Y152308D01*
X18813583Y152170D01*
X18800000Y155809D01*
X18783978Y151516D01*
X18771315Y151516D01*
X18763598Y150500D01*
X11114789Y150500D01*
X11046668Y170502D01*
X11000175Y224158D01*
X10998885Y227333D01*
X10998524Y228680D01*
X10912676Y418205D01*
X10888477Y454429D01*
X10799964Y586926D01*
X10799961Y586930D01*
X10797099Y591214D01*
X10654881Y743082D01*
X10489822Y869753D01*
X10306332Y967841D01*
X10301455Y969497D01*
X10301452Y969498D01*
X10114198Y1033069D01*
X10114197Y1033069D01*
X10109314Y1034727D01*
X9904031Y1068623D01*
X9695969Y1068623D01*
X9490686Y1034727D01*
X9485803Y1033069D01*
X9485802Y1033069D01*
X9298548Y969498D01*
X9298545Y969497D01*
X9293668Y967841D01*
X9110178Y869753D01*
X8945119Y743082D01*
X8802901Y591214D01*
X8800039Y586930D01*
X8800036Y586926D01*
X8711523Y454429D01*
X8687324Y418205D01*
X8685195Y413505D01*
X8685194Y413503D01*
X8634796Y302241D01*
X8601476Y228680D01*
X8600314Y229207D01*
X8562078Y176663D01*
X8495900Y150954D01*
X8485211Y150500D01*
X836402Y150500D01*
X828685Y151516D01*
X816022Y151516D01*
X800000Y155809D01*
X786417Y152170D01*
X783957Y152308D01*
X669580Y165195D01*
X642072Y171474D01*
X531593Y210132D01*
X506180Y222369D01*
X407057Y284651D01*
X385002Y302241D01*
X302241Y385002D01*
X284651Y407057D01*
X222369Y506180D01*
X210132Y531593D01*
X171474Y642072D01*
X165195Y669580D01*
X152308Y783957D01*
X152170Y786417D01*
X155809Y800000D01*
X151516Y816022D01*
X151516Y828685D01*
X150500Y836402D01*
X150500Y3740473D01*
X3177698Y3740473D01*
X3184243Y3696006D01*
X3189984Y3677532D01*
X3235182Y3585475D01*
X3247147Y3568763D01*
X3319282Y3496754D01*
X3336011Y3484820D01*
X3428162Y3439776D01*
X3446623Y3434070D01*
X3504271Y3425660D01*
X3513371Y3425000D01*
X3527885Y3425000D01*
X3543124Y3429475D01*
X3544329Y3430865D01*
X3546000Y3438548D01*
X3546000Y3443115D01*
X4054000Y3443115D01*
X4058475Y3427876D01*
X4059865Y3426671D01*
X4067548Y3425000D01*
X4086596Y3425000D01*
X4095756Y3425670D01*
X4153994Y3434243D01*
X4172468Y3439984D01*
X4264525Y3485182D01*
X4281237Y3497147D01*
X4353246Y3569282D01*
X4365180Y3586011D01*
X4410223Y3678160D01*
X4415930Y3696624D01*
X4422342Y3740575D01*
X4420370Y3754493D01*
X4406776Y3758500D01*
X4072115Y3758500D01*
X4056876Y3754025D01*
X4055671Y3752635D01*
X4054000Y3744952D01*
X4054000Y3443115D01*
X3546000Y3443115D01*
X3546000Y3740385D01*
X3541525Y3755624D01*
X3540135Y3756829D01*
X3532452Y3758500D01*
X3193159Y3758500D01*
X3179697Y3754547D01*
X3177698Y3740473D01*
X150500Y3740473D01*
X150500Y4284425D01*
X3177658Y4284425D01*
X3179630Y4270507D01*
X3193224Y4266500D01*
X3527885Y4266500D01*
X3543124Y4270975D01*
X3544329Y4272365D01*
X3546000Y4280048D01*
X3546000Y4284615D01*
X4054000Y4284615D01*
X4058475Y4269376D01*
X4059865Y4268171D01*
X4067548Y4266500D01*
X4406841Y4266500D01*
X4420303Y4270453D01*
X4422302Y4284527D01*
X4415757Y4328994D01*
X4410016Y4347468D01*
X4364818Y4439525D01*
X4352853Y4456237D01*
X4280718Y4528246D01*
X4263989Y4540180D01*
X4171838Y4585224D01*
X4153377Y4590930D01*
X4095729Y4599340D01*
X4086629Y4600000D01*
X4072115Y4600000D01*
X4056876Y4595525D01*
X4055671Y4594135D01*
X4054000Y4586452D01*
X4054000Y4284615D01*
X3546000Y4284615D01*
X3546000Y4581885D01*
X3541525Y4597124D01*
X3540135Y4598329D01*
X3532452Y4600000D01*
X3513404Y4600000D01*
X3504244Y4599330D01*
X3446006Y4590757D01*
X3427532Y4585016D01*
X3335475Y4539818D01*
X3318763Y4527853D01*
X3246754Y4455718D01*
X3234820Y4438989D01*
X3189777Y4346840D01*
X3184070Y4328376D01*
X3177658Y4284425D01*
X150500Y4284425D01*
X150500Y4800000D01*
X6244815Y4800000D01*
X6245505Y4793435D01*
X6255104Y4702112D01*
X6263503Y4622197D01*
X6265543Y4615920D01*
X6265543Y4615918D01*
X6276601Y4581885D01*
X6318750Y4452165D01*
X6408141Y4297335D01*
X6412559Y4292428D01*
X6412560Y4292427D01*
X6521959Y4170928D01*
X6527770Y4164474D01*
X6533109Y4160595D01*
X6645644Y4078833D01*
X6672407Y4059388D01*
X6678435Y4056704D01*
X6678437Y4056703D01*
X6821192Y3993145D01*
X6835733Y3986671D01*
X6914437Y3969942D01*
X7004152Y3950872D01*
X7004156Y3950872D01*
X7010609Y3949500D01*
X7189391Y3949500D01*
X7195844Y3950872D01*
X7195848Y3950872D01*
X7285563Y3969942D01*
X7364267Y3986671D01*
X7378808Y3993145D01*
X7521563Y4056703D01*
X7521565Y4056704D01*
X7527593Y4059388D01*
X7554357Y4078833D01*
X7631911Y4135180D01*
X11699500Y4135180D01*
X11708233Y4091278D01*
X11715127Y4080960D01*
X11715128Y4080958D01*
X11716416Y4079031D01*
X11741496Y4041496D01*
X11751815Y4034601D01*
X11780958Y4015128D01*
X11780960Y4015127D01*
X11791278Y4008233D01*
X11835180Y3999500D01*
X13164820Y3999500D01*
X13208722Y4008233D01*
X13219040Y4015127D01*
X13219042Y4015128D01*
X13248185Y4034601D01*
X13258504Y4041496D01*
X13283584Y4079031D01*
X13284872Y4080958D01*
X13284873Y4080960D01*
X13291767Y4091278D01*
X13300500Y4135180D01*
X13300500Y5464820D01*
X13291767Y5508722D01*
X13284873Y5519040D01*
X13284872Y5519042D01*
X13265399Y5548185D01*
X13258504Y5558504D01*
X13243637Y5568438D01*
X13219042Y5584872D01*
X13219040Y5584873D01*
X13208722Y5591767D01*
X13164820Y5600500D01*
X11835180Y5600500D01*
X11791278Y5591767D01*
X11780960Y5584873D01*
X11780958Y5584872D01*
X11756363Y5568438D01*
X11741496Y5558504D01*
X11734601Y5548185D01*
X11715128Y5519042D01*
X11715127Y5519040D01*
X11708233Y5508722D01*
X11699500Y5464820D01*
X11699500Y4135180D01*
X7631911Y4135180D01*
X7666891Y4160595D01*
X7672230Y4164474D01*
X7678042Y4170928D01*
X7787440Y4292427D01*
X7787441Y4292428D01*
X7791859Y4297335D01*
X7881250Y4452165D01*
X7923399Y4581885D01*
X7934457Y4615918D01*
X7934457Y4615920D01*
X7936497Y4622197D01*
X7944897Y4702112D01*
X7954495Y4793435D01*
X7955185Y4800000D01*
X7940886Y4936042D01*
X7937187Y4971239D01*
X7937187Y4971240D01*
X7936497Y4977803D01*
X7926440Y5008757D01*
X7883292Y5141550D01*
X7881250Y5147835D01*
X7791859Y5302665D01*
X7672230Y5435526D01*
X7571516Y5508700D01*
X7532935Y5536731D01*
X7532933Y5536732D01*
X7527593Y5540612D01*
X7521565Y5543296D01*
X7521563Y5543297D01*
X7370298Y5610644D01*
X7370297Y5610644D01*
X7364267Y5613329D01*
X7258606Y5635788D01*
X7195848Y5649128D01*
X7195844Y5649128D01*
X7189391Y5650500D01*
X7010609Y5650500D01*
X7004156Y5649128D01*
X7004152Y5649128D01*
X6941394Y5635788D01*
X6835733Y5613329D01*
X6829703Y5610644D01*
X6829702Y5610644D01*
X6678438Y5543297D01*
X6678436Y5543296D01*
X6672408Y5540612D01*
X6667067Y5536732D01*
X6667066Y5536731D01*
X6615822Y5499500D01*
X6527770Y5435526D01*
X6408141Y5302665D01*
X6318750Y5147835D01*
X6316708Y5141550D01*
X6273561Y5008757D01*
X6263503Y4977803D01*
X6262813Y4971240D01*
X6262813Y4971239D01*
X6259114Y4936042D01*
X6244815Y4800000D01*
X150500Y4800000D01*
X150500Y5841251D01*
X3174500Y5841251D01*
X3174501Y5333750D01*
X3175172Y5329192D01*
X3183667Y5271478D01*
X3185183Y5261175D01*
X3239361Y5150829D01*
X3246727Y5143476D01*
X3246729Y5143473D01*
X3318991Y5071337D01*
X3326360Y5063981D01*
X3365009Y5045089D01*
X3427591Y5014498D01*
X3436801Y5009996D01*
X3446476Y5008585D01*
X3446478Y5008584D01*
X3504222Y5000160D01*
X3504228Y5000160D01*
X3508749Y4999500D01*
X3798889Y4999500D01*
X4091250Y4999501D01*
X4117710Y5003396D01*
X4154138Y5008757D01*
X4154139Y5008757D01*
X4163825Y5010183D01*
X4172613Y5014498D01*
X4172614Y5014498D01*
X4264826Y5059773D01*
X4274171Y5064361D01*
X4281524Y5071727D01*
X4281527Y5071729D01*
X4353663Y5143991D01*
X4353664Y5143992D01*
X4361019Y5151360D01*
X4415004Y5261801D01*
X4420131Y5296944D01*
X4424840Y5329222D01*
X4424840Y5329228D01*
X4425500Y5333749D01*
X4425499Y5841250D01*
X4418692Y5887496D01*
X4416243Y5904138D01*
X4416243Y5904139D01*
X4414817Y5913825D01*
X4360639Y6024171D01*
X4353273Y6031524D01*
X4353271Y6031527D01*
X4281009Y6103663D01*
X4281008Y6103664D01*
X4273640Y6111019D01*
X4264287Y6115591D01*
X4264284Y6115593D01*
X4196167Y6148889D01*
X4143750Y6196774D01*
X4125500Y6262089D01*
X4125500Y6849545D01*
X4145502Y6917666D01*
X4162325Y6938561D01*
X4166432Y6942675D01*
X4166433Y6942677D01*
X4174650Y6950908D01*
X4194763Y6996404D01*
X4240601Y7050619D01*
X4308474Y7071446D01*
X4376833Y7052272D01*
X4425154Y6996603D01*
X4445637Y6950490D01*
X4457517Y6938631D01*
X4512676Y6883567D01*
X4512678Y6883566D01*
X4520908Y6875350D01*
X4531548Y6870646D01*
X4609514Y6836177D01*
X4609517Y6836176D01*
X4618183Y6832345D01*
X4627594Y6831248D01*
X4627597Y6831247D01*
X4632862Y6830634D01*
X4642585Y6829500D01*
X4818487Y6829500D01*
X4997414Y6829501D01*
X5001111Y6829941D01*
X5001116Y6829941D01*
X5007257Y6830672D01*
X5022310Y6832462D01*
X5119510Y6875637D01*
X5181284Y6937518D01*
X5243565Y6971597D01*
X5270456Y6974500D01*
X6233109Y6974500D01*
X6301230Y6954498D01*
X6342228Y6911500D01*
X6408141Y6797335D01*
X6412559Y6792428D01*
X6412560Y6792427D01*
X6479749Y6717807D01*
X6527770Y6664474D01*
X6533109Y6660595D01*
X6625937Y6593151D01*
X6672407Y6559388D01*
X6678435Y6556704D01*
X6678437Y6556703D01*
X6758864Y6520895D01*
X6835733Y6486671D01*
X6923171Y6468085D01*
X7004152Y6450872D01*
X7004156Y6450872D01*
X7010609Y6449500D01*
X7189391Y6449500D01*
X7195844Y6450872D01*
X7195848Y6450872D01*
X7276829Y6468086D01*
X7364267Y6486671D01*
X7441136Y6520895D01*
X7521563Y6556703D01*
X7521565Y6556704D01*
X7527593Y6559388D01*
X7574064Y6593151D01*
X7666891Y6660595D01*
X7672230Y6664474D01*
X7720252Y6717807D01*
X7787440Y6792427D01*
X7787441Y6792428D01*
X7791859Y6797335D01*
X7852121Y6901712D01*
X7877946Y6946442D01*
X7877947Y6946443D01*
X7881250Y6952165D01*
X7915340Y7057084D01*
X7934457Y7115918D01*
X7934457Y7115920D01*
X7936497Y7122197D01*
X7955185Y7300000D01*
X7936497Y7477803D01*
X7881250Y7647835D01*
X7791859Y7802665D01*
X7720310Y7882128D01*
X7676645Y7930623D01*
X7676643Y7930624D01*
X7672230Y7935526D01*
X7574120Y8006808D01*
X7532935Y8036731D01*
X7532933Y8036732D01*
X7527593Y8040612D01*
X7521565Y8043296D01*
X7521563Y8043297D01*
X7370298Y8110644D01*
X7370297Y8110644D01*
X7364267Y8113329D01*
X7258606Y8135788D01*
X7195848Y8149128D01*
X7195844Y8149128D01*
X7189391Y8150500D01*
X7010609Y8150500D01*
X7004156Y8149128D01*
X7004152Y8149128D01*
X6941394Y8135788D01*
X6835733Y8113329D01*
X6829703Y8110644D01*
X6829702Y8110644D01*
X6678438Y8043297D01*
X6678436Y8043296D01*
X6672408Y8040612D01*
X6667067Y8036732D01*
X6667066Y8036731D01*
X6615822Y7999500D01*
X6527770Y7935526D01*
X6523357Y7930624D01*
X6523355Y7930623D01*
X6479690Y7882128D01*
X6408141Y7802665D01*
X6404838Y7796944D01*
X6342228Y7688500D01*
X6290846Y7639507D01*
X6233109Y7625500D01*
X5270542Y7625500D01*
X5202421Y7645502D01*
X5181524Y7662327D01*
X5127324Y7716433D01*
X5127322Y7716434D01*
X5119092Y7724650D01*
X5108452Y7729354D01*
X5030486Y7763823D01*
X5030483Y7763824D01*
X5021817Y7767655D01*
X5012406Y7768752D01*
X5012403Y7768753D01*
X5007138Y7769366D01*
X4997415Y7770500D01*
X4821513Y7770500D01*
X4642586Y7770499D01*
X4638889Y7770059D01*
X4638884Y7770059D01*
X4632743Y7769328D01*
X4617690Y7767538D01*
X4520490Y7724363D01*
X4484689Y7688500D01*
X4453567Y7657324D01*
X4453566Y7657322D01*
X4445350Y7649092D01*
X4440647Y7638454D01*
X4425237Y7603597D01*
X4379399Y7549381D01*
X4311526Y7528554D01*
X4243167Y7547728D01*
X4194846Y7603397D01*
X4179086Y7638877D01*
X4174363Y7649510D01*
X4135305Y7688500D01*
X4107324Y7716433D01*
X4107322Y7716434D01*
X4099092Y7724650D01*
X4088452Y7729354D01*
X4010486Y7763823D01*
X4010483Y7763824D01*
X4001817Y7767655D01*
X3992406Y7768752D01*
X3992403Y7768753D01*
X3987138Y7769366D01*
X3977415Y7770500D01*
X3801513Y7770500D01*
X3622586Y7770499D01*
X3618889Y7770059D01*
X3618884Y7770059D01*
X3612743Y7769328D01*
X3597690Y7767538D01*
X3500490Y7724363D01*
X3464689Y7688500D01*
X3433567Y7657324D01*
X3433566Y7657322D01*
X3425350Y7649092D01*
X3420647Y7638454D01*
X3420646Y7638452D01*
X3386177Y7560486D01*
X3386176Y7560483D01*
X3382345Y7551817D01*
X3379500Y7527415D01*
X3379501Y7072586D01*
X3382462Y7047690D01*
X3425637Y6950490D01*
X3437517Y6938631D01*
X3471597Y6876349D01*
X3474500Y6849457D01*
X3474500Y6262138D01*
X3454498Y6194017D01*
X3404031Y6149035D01*
X3335176Y6115229D01*
X3335173Y6115227D01*
X3325829Y6110639D01*
X3318476Y6103273D01*
X3318473Y6103271D01*
X3302725Y6087495D01*
X3238981Y6023640D01*
X3184996Y5913199D01*
X3183585Y5903524D01*
X3183584Y5903522D01*
X3175165Y5845808D01*
X3174500Y5841251D01*
X150500Y5841251D01*
X150500Y8485211D01*
X170502Y8553332D01*
X224158Y8599825D01*
X227333Y8601115D01*
X228680Y8601476D01*
X418205Y8687324D01*
X475866Y8725844D01*
X586926Y8800036D01*
X586930Y8800039D01*
X591214Y8802901D01*
X743082Y8945119D01*
X869753Y9110178D01*
X967841Y9293668D01*
X992841Y9367306D01*
X1033069Y9485802D01*
X1033069Y9485803D01*
X1034727Y9490686D01*
X1068623Y9695969D01*
X1068623Y9800000D01*
X6244815Y9800000D01*
X6245505Y9793435D01*
X6260676Y9649098D01*
X6263503Y9622197D01*
X6265543Y9615920D01*
X6265543Y9615918D01*
X6292062Y9534302D01*
X6318750Y9452165D01*
X6322053Y9446443D01*
X6322054Y9446442D01*
X6348789Y9400136D01*
X6408141Y9297335D01*
X6527770Y9164474D01*
X6533109Y9160595D01*
X6608131Y9106088D01*
X6672407Y9059388D01*
X6678435Y9056704D01*
X6678437Y9056703D01*
X6758864Y9020895D01*
X6835733Y8986671D01*
X6923171Y8968086D01*
X7004152Y8950872D01*
X7004156Y8950872D01*
X7010609Y8949500D01*
X7189391Y8949500D01*
X7195844Y8950872D01*
X7195848Y8950872D01*
X7276829Y8968085D01*
X7364267Y8986671D01*
X7370294Y8989354D01*
X7370302Y8989357D01*
X7419948Y9011461D01*
X7490315Y9020895D01*
X7554612Y8990788D01*
X7560291Y8985449D01*
X8146642Y8399098D01*
X8162312Y8380005D01*
X8162505Y8379716D01*
X8162507Y8379714D01*
X8169399Y8369399D01*
X8222464Y8333943D01*
X8252259Y8314034D01*
X8350000Y8294592D01*
X8362171Y8297013D01*
X8362172Y8297013D01*
X8362504Y8297079D01*
X8387085Y8299500D01*
X12061096Y8299500D01*
X12129217Y8279498D01*
X12175710Y8225842D01*
X12185814Y8155568D01*
X12156320Y8090988D01*
X12112345Y8058393D01*
X12078438Y8043297D01*
X12078436Y8043296D01*
X12072408Y8040612D01*
X12067067Y8036732D01*
X12067066Y8036731D01*
X12015822Y7999500D01*
X11927770Y7935526D01*
X11923357Y7930624D01*
X11923355Y7930623D01*
X11879690Y7882128D01*
X11808141Y7802665D01*
X11718750Y7647835D01*
X11663503Y7477803D01*
X11644815Y7300000D01*
X11663503Y7122197D01*
X11665543Y7115920D01*
X11665543Y7115918D01*
X11684660Y7057084D01*
X11718750Y6952165D01*
X11722053Y6946443D01*
X11722054Y6946442D01*
X11747879Y6901712D01*
X11808141Y6797335D01*
X11812559Y6792428D01*
X11812560Y6792427D01*
X11879749Y6717807D01*
X11927770Y6664474D01*
X11933109Y6660595D01*
X12025937Y6593151D01*
X12072407Y6559388D01*
X12078435Y6556704D01*
X12078437Y6556703D01*
X12158864Y6520895D01*
X12235733Y6486671D01*
X12323171Y6468085D01*
X12404152Y6450872D01*
X12404156Y6450872D01*
X12410609Y6449500D01*
X12589391Y6449500D01*
X12595844Y6450872D01*
X12595848Y6450872D01*
X12676829Y6468086D01*
X12764267Y6486671D01*
X12770294Y6489354D01*
X12770302Y6489357D01*
X12819948Y6511461D01*
X12890315Y6520895D01*
X12954612Y6490788D01*
X12960291Y6485449D01*
X13612595Y5833145D01*
X13646621Y5770833D01*
X13649500Y5744050D01*
X13649500Y4837085D01*
X13647079Y4812504D01*
X13644592Y4800000D01*
X13647013Y4787829D01*
X13661379Y4715609D01*
X13664034Y4702259D01*
X13683943Y4672464D01*
X13719399Y4619399D01*
X13729714Y4612507D01*
X13729716Y4612505D01*
X13730005Y4612312D01*
X13749098Y4596642D01*
X14096642Y4249098D01*
X14112312Y4230005D01*
X14112505Y4229716D01*
X14112507Y4229714D01*
X14119399Y4219399D01*
X14202260Y4164034D01*
X14214431Y4161613D01*
X14275326Y4149500D01*
X14287828Y4147013D01*
X14287829Y4147013D01*
X14300000Y4144592D01*
X14312503Y4147079D01*
X14337085Y4149500D01*
X14580797Y4149500D01*
X14648918Y4129498D01*
X14693900Y4079031D01*
X14729849Y4005812D01*
X14736068Y3993145D01*
X14818650Y3910707D01*
X14923482Y3859464D01*
X14953973Y3855016D01*
X14987256Y3850160D01*
X14987260Y3850160D01*
X14991782Y3849500D01*
X15608218Y3849500D01*
X15612768Y3850170D01*
X15612771Y3850170D01*
X15667426Y3858216D01*
X15667427Y3858216D01*
X15677112Y3859642D01*
X15771804Y3906133D01*
X15772507Y3906478D01*
X15772509Y3906479D01*
X15781855Y3911068D01*
X15864293Y3993650D01*
X15905932Y4078834D01*
X15953816Y4131250D01*
X16019131Y4149500D01*
X16080797Y4149500D01*
X16148918Y4129498D01*
X16193900Y4079031D01*
X16229849Y4005812D01*
X16236068Y3993145D01*
X16318650Y3910707D01*
X16423482Y3859464D01*
X16453973Y3855016D01*
X16487256Y3850160D01*
X16487260Y3850160D01*
X16491782Y3849500D01*
X17108218Y3849500D01*
X17112768Y3850170D01*
X17112771Y3850170D01*
X17167426Y3858216D01*
X17167427Y3858216D01*
X17177112Y3859642D01*
X17271804Y3906133D01*
X17272507Y3906478D01*
X17272509Y3906479D01*
X17281855Y3911068D01*
X17364293Y3993650D01*
X17405932Y4078834D01*
X17453816Y4131250D01*
X17519131Y4149500D01*
X17783637Y4149500D01*
X17851758Y4129498D01*
X17883900Y4098336D01*
X17886444Y4092609D01*
X17894679Y4084388D01*
X17894680Y4084387D01*
X17900244Y4078833D01*
X17963034Y4016153D01*
X18062013Y3972395D01*
X18078283Y3970498D01*
X18083203Y3969924D01*
X18083208Y3969924D01*
X18086842Y3969500D01*
X18513158Y3969500D01*
X18521745Y3970522D01*
X18529097Y3971396D01*
X18529100Y3971397D01*
X18538489Y3972514D01*
X18547128Y3976351D01*
X18547131Y3976352D01*
X18626763Y4011723D01*
X18626764Y4011724D01*
X18637391Y4016444D01*
X18713847Y4093034D01*
X18757605Y4192013D01*
X18760500Y4216842D01*
X18760500Y4583158D01*
X18758896Y4596642D01*
X18758604Y4599097D01*
X18758603Y4599100D01*
X18757486Y4608489D01*
X18753649Y4617128D01*
X18753648Y4617131D01*
X18718277Y4696763D01*
X18718276Y4696764D01*
X18713556Y4707391D01*
X18675129Y4745750D01*
X18645202Y4775626D01*
X18645200Y4775627D01*
X18636966Y4783847D01*
X18637545Y4784427D01*
X18599230Y4831344D01*
X18591182Y4901883D01*
X18622547Y4965576D01*
X18643959Y4984161D01*
X18645323Y4985098D01*
X18705209Y5045089D01*
X18718131Y5063962D01*
X18729390Y5089430D01*
X18731228Y5103413D01*
X18727092Y5106000D01*
X17881392Y5106000D01*
X17867861Y5102027D01*
X17867172Y5097231D01*
X17882141Y5063529D01*
X17895097Y5044678D01*
X17955089Y4984792D01*
X17955861Y4984263D01*
X17956931Y4982953D01*
X17963322Y4976573D01*
X17962672Y4975922D01*
X18000768Y4929274D01*
X18008817Y4858735D01*
X17977452Y4795042D01*
X17965908Y4785021D01*
X17962609Y4783556D01*
X17924425Y4745305D01*
X17894373Y4715201D01*
X17894372Y4715199D01*
X17886153Y4706966D01*
X17884190Y4702526D01*
X17832610Y4660406D01*
X17783639Y4650500D01*
X17519203Y4650500D01*
X17451082Y4670502D01*
X17406100Y4720969D01*
X17368522Y4797507D01*
X17368521Y4797509D01*
X17363932Y4806855D01*
X17281350Y4889293D01*
X17176518Y4940536D01*
X17146027Y4944984D01*
X17112744Y4949840D01*
X17112740Y4949840D01*
X17108218Y4950500D01*
X16491782Y4950500D01*
X16487232Y4949830D01*
X16487229Y4949830D01*
X16432574Y4941784D01*
X16432573Y4941784D01*
X16422888Y4940358D01*
X16372992Y4915860D01*
X16327493Y4893522D01*
X16327491Y4893521D01*
X16318145Y4888932D01*
X16235707Y4806350D01*
X16231134Y4796994D01*
X16231133Y4796993D01*
X16194069Y4721167D01*
X16146184Y4668750D01*
X16080869Y4650500D01*
X16019203Y4650500D01*
X15951082Y4670502D01*
X15906100Y4720969D01*
X15868522Y4797507D01*
X15868521Y4797509D01*
X15863932Y4806855D01*
X15781350Y4889293D01*
X15676518Y4940536D01*
X15646027Y4944984D01*
X15612744Y4949840D01*
X15612740Y4949840D01*
X15608218Y4950500D01*
X14991782Y4950500D01*
X14987232Y4949830D01*
X14987229Y4949830D01*
X14932574Y4941784D01*
X14932573Y4941784D01*
X14922888Y4940358D01*
X14872992Y4915860D01*
X14827493Y4893522D01*
X14827491Y4893521D01*
X14818145Y4888932D01*
X14735707Y4806350D01*
X14731134Y4796994D01*
X14731133Y4796993D01*
X14694069Y4721167D01*
X14646184Y4668750D01*
X14580869Y4650500D01*
X14455950Y4650500D01*
X14387829Y4670502D01*
X14366855Y4687405D01*
X14187405Y4866855D01*
X14153379Y4929167D01*
X14150500Y4955950D01*
X14150500Y5862915D01*
X14152921Y5887496D01*
X14152987Y5887828D01*
X14152987Y5887829D01*
X14155408Y5900000D01*
X14135966Y5997741D01*
X14124550Y6014826D01*
X14116058Y6027535D01*
X14116057Y6027536D01*
X14087493Y6070286D01*
X14080601Y6080601D01*
X14070286Y6087493D01*
X14070284Y6087495D01*
X14069995Y6087688D01*
X14050902Y6103358D01*
X13316436Y6837824D01*
X13282410Y6900136D01*
X13285698Y6965855D01*
X13334457Y7115918D01*
X13334457Y7115920D01*
X13336497Y7122197D01*
X13355185Y7300000D01*
X13336497Y7477803D01*
X13281250Y7647835D01*
X13191859Y7802665D01*
X13120310Y7882128D01*
X13076645Y7930623D01*
X13076643Y7930624D01*
X13072230Y7935526D01*
X12974120Y8006808D01*
X12932935Y8036731D01*
X12932933Y8036732D01*
X12927593Y8040612D01*
X12921565Y8043296D01*
X12921563Y8043297D01*
X12887656Y8058393D01*
X12833560Y8104373D01*
X12812911Y8172300D01*
X12832263Y8240608D01*
X12885474Y8287610D01*
X12938905Y8299500D01*
X14580797Y8299500D01*
X14648918Y8279498D01*
X14693900Y8229031D01*
X14729969Y8155568D01*
X14736068Y8143145D01*
X14818650Y8060707D01*
X14923482Y8009464D01*
X14941407Y8006849D01*
X14941688Y8006808D01*
X15006208Y7977183D01*
X15044469Y7917378D01*
X15049500Y7882128D01*
X15049500Y6717807D01*
X15029498Y6649686D01*
X14975842Y6603193D01*
X14941854Y6593151D01*
X14932579Y6591785D01*
X14932577Y6591784D01*
X14922888Y6590358D01*
X14872992Y6565860D01*
X14827493Y6543522D01*
X14827491Y6543521D01*
X14818145Y6538932D01*
X14790722Y6511461D01*
X14764606Y6485299D01*
X14735707Y6456350D01*
X14684464Y6351518D01*
X14683052Y6341838D01*
X14677776Y6305671D01*
X14674500Y6283218D01*
X14674500Y5816782D01*
X14675170Y5812232D01*
X14675170Y5812229D01*
X14683194Y5757722D01*
X14684642Y5747888D01*
X14736068Y5643145D01*
X14743438Y5635788D01*
X14785111Y5594188D01*
X14818650Y5560707D01*
X14923482Y5509464D01*
X14948152Y5505865D01*
X14987256Y5500160D01*
X14987260Y5500160D01*
X14991782Y5499500D01*
X15608218Y5499500D01*
X15612768Y5500170D01*
X15612771Y5500170D01*
X15667426Y5508216D01*
X15667427Y5508216D01*
X15677112Y5509642D01*
X15745660Y5543297D01*
X15772507Y5556478D01*
X15772509Y5556479D01*
X15781855Y5561068D01*
X15834695Y5614000D01*
X15856935Y5636279D01*
X15856935Y5636280D01*
X15864293Y5643650D01*
X15870349Y5656038D01*
X15911240Y5739694D01*
X15915536Y5748482D01*
X15925500Y5816782D01*
X15927483Y5816493D01*
X15949442Y5875239D01*
X16006308Y5917746D01*
X16077127Y5922761D01*
X16139415Y5888691D01*
X16173396Y5826355D01*
X16174778Y5816791D01*
X16175001Y5816824D01*
X16183700Y5757722D01*
X16189443Y5739241D01*
X16231889Y5652787D01*
X16243849Y5636082D01*
X16311572Y5568477D01*
X16328300Y5556545D01*
X16414838Y5514245D01*
X16433306Y5508537D01*
X16487297Y5500660D01*
X16496396Y5500000D01*
X16527885Y5500000D01*
X16543124Y5504475D01*
X16544329Y5505865D01*
X16546000Y5513548D01*
X16546000Y5518116D01*
X17054000Y5518116D01*
X17058475Y5502877D01*
X17059865Y5501672D01*
X17067548Y5500001D01*
X17103568Y5500001D01*
X17112734Y5500672D01*
X17167278Y5508700D01*
X17185759Y5514443D01*
X17272213Y5556889D01*
X17288918Y5568849D01*
X17336573Y5616587D01*
X17868772Y5616587D01*
X17872908Y5614000D01*
X18027885Y5614000D01*
X18043124Y5618475D01*
X18044329Y5619865D01*
X18046000Y5627548D01*
X18046000Y5632115D01*
X18554000Y5632115D01*
X18558475Y5616876D01*
X18559865Y5615671D01*
X18567548Y5614000D01*
X18718608Y5614000D01*
X18732139Y5617973D01*
X18732828Y5622769D01*
X18717859Y5656471D01*
X18704903Y5675322D01*
X18644911Y5735209D01*
X18626038Y5748131D01*
X18570570Y5772653D01*
X18556587Y5774491D01*
X18554000Y5770355D01*
X18554000Y5632115D01*
X18046000Y5632115D01*
X18046000Y5761934D01*
X18042027Y5775465D01*
X18037232Y5776154D01*
X17973532Y5747860D01*
X17954677Y5734901D01*
X17894791Y5674911D01*
X17881869Y5656038D01*
X17870610Y5630570D01*
X17868772Y5616587D01*
X17336573Y5616587D01*
X17356523Y5636572D01*
X17368455Y5653300D01*
X17410755Y5739838D01*
X17416463Y5758305D01*
X17419347Y5778074D01*
X17417375Y5791993D01*
X17403781Y5796000D01*
X17072115Y5796000D01*
X17056876Y5791525D01*
X17055671Y5790135D01*
X17054000Y5782452D01*
X17054000Y5518116D01*
X16546000Y5518116D01*
X16546000Y6322115D01*
X17054000Y6322115D01*
X17058475Y6306876D01*
X17059865Y6305671D01*
X17067548Y6304000D01*
X17403819Y6304000D01*
X17417281Y6307953D01*
X17419281Y6322028D01*
X17416300Y6342278D01*
X17410557Y6360759D01*
X17368111Y6447213D01*
X17356151Y6463918D01*
X17288428Y6531523D01*
X17271700Y6543455D01*
X17185162Y6585755D01*
X17166694Y6591463D01*
X17112703Y6599340D01*
X17103604Y6600000D01*
X17072115Y6600000D01*
X17056876Y6595525D01*
X17055671Y6594135D01*
X17054000Y6586452D01*
X17054000Y6322115D01*
X16546000Y6322115D01*
X16546000Y6581884D01*
X16541525Y6597123D01*
X16540135Y6598328D01*
X16532452Y6599999D01*
X16496432Y6599999D01*
X16487266Y6599328D01*
X16432722Y6591300D01*
X16414241Y6585557D01*
X16327787Y6543111D01*
X16311082Y6531151D01*
X16243477Y6463428D01*
X16231545Y6446700D01*
X16189245Y6360162D01*
X16183537Y6341694D01*
X16175000Y6283177D01*
X16173018Y6283466D01*
X16151015Y6224709D01*
X16094124Y6182237D01*
X16023302Y6177265D01*
X15961034Y6211371D01*
X15927091Y6273728D01*
X15925721Y6283250D01*
X15925500Y6283218D01*
X15916784Y6342426D01*
X15916784Y6342427D01*
X15915358Y6352112D01*
X15863932Y6456855D01*
X15781350Y6539293D01*
X15676518Y6590536D01*
X15658312Y6593192D01*
X15593792Y6622817D01*
X15555531Y6682622D01*
X15550500Y6717872D01*
X15550500Y7882193D01*
X15570502Y7950314D01*
X15624158Y7996807D01*
X15658146Y8006849D01*
X15667421Y8008215D01*
X15667423Y8008216D01*
X15677112Y8009642D01*
X15771804Y8056133D01*
X15772507Y8056478D01*
X15772509Y8056479D01*
X15781855Y8061068D01*
X15834025Y8113329D01*
X15856935Y8136279D01*
X15856935Y8136280D01*
X15864293Y8143650D01*
X15878298Y8172300D01*
X15911240Y8239694D01*
X15915536Y8248482D01*
X15925500Y8316782D01*
X15927483Y8316493D01*
X15949442Y8375239D01*
X16006308Y8417746D01*
X16077127Y8422761D01*
X16139415Y8388691D01*
X16173396Y8326355D01*
X16174778Y8316791D01*
X16175001Y8316824D01*
X16183700Y8257722D01*
X16189443Y8239241D01*
X16231889Y8152787D01*
X16243849Y8136082D01*
X16311572Y8068477D01*
X16328300Y8056545D01*
X16414838Y8014245D01*
X16433306Y8008537D01*
X16487297Y8000660D01*
X16496396Y8000000D01*
X16527885Y8000000D01*
X16543124Y8004475D01*
X16544329Y8005865D01*
X16546000Y8013548D01*
X16546000Y8018116D01*
X17054000Y8018116D01*
X17058475Y8002877D01*
X17059865Y8001672D01*
X17067548Y8000001D01*
X17103568Y8000001D01*
X17112734Y8000672D01*
X17167278Y8008700D01*
X17185759Y8014443D01*
X17272213Y8056889D01*
X17288918Y8068849D01*
X17356523Y8136572D01*
X17368455Y8153300D01*
X17410755Y8239838D01*
X17416463Y8258305D01*
X17419347Y8278074D01*
X17417375Y8291993D01*
X17403781Y8296000D01*
X17072115Y8296000D01*
X17056876Y8291525D01*
X17055671Y8290135D01*
X17054000Y8282452D01*
X17054000Y8018116D01*
X16546000Y8018116D01*
X16546000Y8822115D01*
X17054000Y8822115D01*
X17058475Y8806876D01*
X17059865Y8805671D01*
X17067548Y8804000D01*
X17403819Y8804000D01*
X17417281Y8807953D01*
X17419281Y8822028D01*
X17416300Y8842278D01*
X17410557Y8860759D01*
X17368111Y8947213D01*
X17356151Y8963918D01*
X17288428Y9031523D01*
X17271700Y9043455D01*
X17185162Y9085755D01*
X17166694Y9091463D01*
X17112703Y9099340D01*
X17103604Y9100000D01*
X17072115Y9100000D01*
X17056876Y9095525D01*
X17055671Y9094135D01*
X17054000Y9086452D01*
X17054000Y8822115D01*
X16546000Y8822115D01*
X16546000Y9081884D01*
X16541525Y9097123D01*
X16540135Y9098328D01*
X16532452Y9099999D01*
X16496432Y9099999D01*
X16487266Y9099328D01*
X16432722Y9091300D01*
X16414241Y9085557D01*
X16327787Y9043111D01*
X16311082Y9031151D01*
X16243477Y8963428D01*
X16231545Y8946700D01*
X16189245Y8860162D01*
X16183537Y8841694D01*
X16175000Y8783177D01*
X16173018Y8783466D01*
X16151015Y8724709D01*
X16094124Y8682237D01*
X16023302Y8677265D01*
X15961034Y8711371D01*
X15927091Y8773728D01*
X15925721Y8783250D01*
X15925500Y8783218D01*
X15916784Y8842426D01*
X15916784Y8842427D01*
X15915358Y8852112D01*
X15890860Y8902008D01*
X15868522Y8947507D01*
X15868521Y8947509D01*
X15863932Y8956855D01*
X15781350Y9039293D01*
X15676518Y9090536D01*
X15642320Y9095525D01*
X15612744Y9099840D01*
X15612740Y9099840D01*
X15608218Y9100500D01*
X14991782Y9100500D01*
X14987232Y9099830D01*
X14987229Y9099830D01*
X14932574Y9091784D01*
X14932573Y9091784D01*
X14922888Y9090358D01*
X14872992Y9065860D01*
X14827493Y9043522D01*
X14827491Y9043521D01*
X14818145Y9038932D01*
X14790722Y9011461D01*
X14754869Y8975545D01*
X14735707Y8956350D01*
X14731134Y8946994D01*
X14731133Y8946993D01*
X14694069Y8871167D01*
X14646184Y8818750D01*
X14580869Y8800500D01*
X12938905Y8800500D01*
X12870784Y8820502D01*
X12824291Y8874158D01*
X12814187Y8944432D01*
X12843681Y9009012D01*
X12887656Y9041607D01*
X12921563Y9056703D01*
X12921565Y9056704D01*
X12927593Y9059388D01*
X12991870Y9106088D01*
X13066891Y9160595D01*
X13072230Y9164474D01*
X13191859Y9297335D01*
X13251211Y9400136D01*
X13277946Y9446442D01*
X13277947Y9446443D01*
X13281250Y9452165D01*
X13284587Y9462436D01*
X13285962Y9464446D01*
X13285976Y9464478D01*
X13285982Y9464475D01*
X13324658Y9521040D01*
X13390054Y9548678D01*
X13404420Y9549500D01*
X13862915Y9549500D01*
X13887496Y9547079D01*
X13887828Y9547013D01*
X13887829Y9547013D01*
X13900000Y9544592D01*
X13912171Y9547013D01*
X13985570Y9561613D01*
X13997741Y9564034D01*
X14027536Y9583943D01*
X14080601Y9619399D01*
X14087493Y9629714D01*
X14087495Y9629716D01*
X14087688Y9630005D01*
X14103358Y9649098D01*
X14366855Y9912595D01*
X14429167Y9946621D01*
X14455950Y9949500D01*
X14580797Y9949500D01*
X14648918Y9929498D01*
X14693900Y9879031D01*
X14736068Y9793145D01*
X14818650Y9710707D01*
X14923482Y9659464D01*
X14953973Y9655016D01*
X14987256Y9650160D01*
X14987260Y9650160D01*
X14991782Y9649500D01*
X15608218Y9649500D01*
X15612768Y9650170D01*
X15612771Y9650170D01*
X15667426Y9658216D01*
X15667427Y9658216D01*
X15677112Y9659642D01*
X15771804Y9706133D01*
X15772507Y9706478D01*
X15772509Y9706479D01*
X15781855Y9711068D01*
X15864293Y9793650D01*
X15905932Y9878834D01*
X15953816Y9931250D01*
X16019131Y9949500D01*
X16080797Y9949500D01*
X16148918Y9929498D01*
X16193900Y9879031D01*
X16236068Y9793145D01*
X16318650Y9710707D01*
X16423482Y9659464D01*
X16453973Y9655016D01*
X16487256Y9650160D01*
X16487260Y9650160D01*
X16491782Y9649500D01*
X17108218Y9649500D01*
X17112768Y9650170D01*
X17112771Y9650170D01*
X17167426Y9658216D01*
X17167427Y9658216D01*
X17177112Y9659642D01*
X17271804Y9706133D01*
X17272507Y9706478D01*
X17272509Y9706479D01*
X17281855Y9711068D01*
X17364293Y9793650D01*
X17415536Y9898482D01*
X17425500Y9966782D01*
X17425500Y10433218D01*
X17422600Y10452921D01*
X17416784Y10492426D01*
X17416784Y10492427D01*
X17415358Y10502112D01*
X17363932Y10606855D01*
X17281350Y10689293D01*
X17176518Y10740536D01*
X17146027Y10744984D01*
X17112744Y10749840D01*
X17112740Y10749840D01*
X17108218Y10750500D01*
X16491782Y10750500D01*
X16487232Y10749830D01*
X16487229Y10749830D01*
X16432574Y10741784D01*
X16432573Y10741784D01*
X16422888Y10740358D01*
X16372992Y10715860D01*
X16327493Y10693522D01*
X16327491Y10693521D01*
X16318145Y10688932D01*
X16235707Y10606350D01*
X16201677Y10536731D01*
X16194069Y10521167D01*
X16146184Y10468750D01*
X16080869Y10450500D01*
X16019203Y10450500D01*
X15951082Y10470502D01*
X15906100Y10520969D01*
X15868522Y10597507D01*
X15868521Y10597509D01*
X15863932Y10606855D01*
X15781350Y10689293D01*
X15676518Y10740536D01*
X15646027Y10744984D01*
X15612744Y10749840D01*
X15612740Y10749840D01*
X15608218Y10750500D01*
X14991782Y10750500D01*
X14987232Y10749830D01*
X14987229Y10749830D01*
X14932574Y10741784D01*
X14932573Y10741784D01*
X14922888Y10740358D01*
X14872992Y10715860D01*
X14827493Y10693522D01*
X14827491Y10693521D01*
X14818145Y10688932D01*
X14735707Y10606350D01*
X14701677Y10536731D01*
X14694069Y10521167D01*
X14646184Y10468750D01*
X14580869Y10450500D01*
X14337085Y10450500D01*
X14312502Y10452921D01*
X14300000Y10455408D01*
X14287829Y10452987D01*
X14275327Y10450500D01*
X14275326Y10450500D01*
X14244315Y10444331D01*
X14214430Y10438387D01*
X14214429Y10438387D01*
X14202260Y10435966D01*
X14119399Y10380601D01*
X14112507Y10370286D01*
X14112505Y10370284D01*
X14112312Y10369995D01*
X14096642Y10350902D01*
X13833145Y10087405D01*
X13770833Y10053379D01*
X13744050Y10050500D01*
X13404420Y10050500D01*
X13336299Y10070502D01*
X13289806Y10124158D01*
X13284590Y10137557D01*
X13281250Y10147835D01*
X13191859Y10302665D01*
X13148426Y10350902D01*
X13076645Y10430623D01*
X13076643Y10430624D01*
X13072230Y10435526D01*
X12993915Y10492426D01*
X12932935Y10536731D01*
X12932933Y10536732D01*
X12927593Y10540612D01*
X12921565Y10543296D01*
X12921563Y10543297D01*
X12770298Y10610644D01*
X12770297Y10610644D01*
X12764267Y10613329D01*
X12676829Y10631914D01*
X12595848Y10649128D01*
X12595844Y10649128D01*
X12589391Y10650500D01*
X12410609Y10650500D01*
X12404156Y10649128D01*
X12404152Y10649128D01*
X12323171Y10631914D01*
X12235733Y10613329D01*
X12229703Y10610644D01*
X12229702Y10610644D01*
X12078438Y10543297D01*
X12078436Y10543296D01*
X12072408Y10540612D01*
X12067067Y10536732D01*
X12067066Y10536731D01*
X12031516Y10510902D01*
X11927770Y10435526D01*
X11923357Y10430624D01*
X11923355Y10430623D01*
X11851574Y10350902D01*
X11808141Y10302665D01*
X11718750Y10147835D01*
X11663503Y9977803D01*
X11662813Y9971240D01*
X11662813Y9971239D01*
X11654242Y9889694D01*
X11644815Y9800000D01*
X11645505Y9793435D01*
X11660676Y9649098D01*
X11663503Y9622197D01*
X11665543Y9615920D01*
X11665543Y9615918D01*
X11692062Y9534302D01*
X11718750Y9452165D01*
X11722053Y9446443D01*
X11722054Y9446442D01*
X11748789Y9400136D01*
X11808141Y9297335D01*
X11927770Y9164474D01*
X11933109Y9160595D01*
X12008131Y9106088D01*
X12072407Y9059388D01*
X12078435Y9056704D01*
X12078437Y9056703D01*
X12112344Y9041607D01*
X12166440Y8995627D01*
X12187089Y8927700D01*
X12167737Y8859392D01*
X12114526Y8812390D01*
X12061095Y8800500D01*
X8505950Y8800500D01*
X8437829Y8820502D01*
X8416855Y8837405D01*
X7916436Y9337824D01*
X7882410Y9400136D01*
X7885698Y9465855D01*
X7934457Y9615918D01*
X7934457Y9615920D01*
X7936497Y9622197D01*
X7939325Y9649098D01*
X7954495Y9793435D01*
X7955185Y9800000D01*
X7945758Y9889694D01*
X7937187Y9971239D01*
X7937187Y9971240D01*
X7936497Y9977803D01*
X7881250Y10147835D01*
X7791859Y10302665D01*
X7748426Y10350902D01*
X7676645Y10430623D01*
X7676643Y10430624D01*
X7672230Y10435526D01*
X7593915Y10492426D01*
X7532935Y10536731D01*
X7532933Y10536732D01*
X7527593Y10540612D01*
X7521565Y10543296D01*
X7521563Y10543297D01*
X7370298Y10610644D01*
X7370297Y10610644D01*
X7364267Y10613329D01*
X7276829Y10631914D01*
X7195848Y10649128D01*
X7195844Y10649128D01*
X7189391Y10650500D01*
X7010609Y10650500D01*
X7004156Y10649128D01*
X7004152Y10649128D01*
X6923171Y10631914D01*
X6835733Y10613329D01*
X6829703Y10610644D01*
X6829702Y10610644D01*
X6678438Y10543297D01*
X6678436Y10543296D01*
X6672408Y10540612D01*
X6667067Y10536732D01*
X6667066Y10536731D01*
X6631516Y10510902D01*
X6527770Y10435526D01*
X6523357Y10430624D01*
X6523355Y10430623D01*
X6451574Y10350902D01*
X6408141Y10302665D01*
X6318750Y10147835D01*
X6263503Y9977803D01*
X6262813Y9971240D01*
X6262813Y9971239D01*
X6254242Y9889694D01*
X6244815Y9800000D01*
X1068623Y9800000D01*
X1068623Y9904031D01*
X1034727Y10109314D01*
X1023782Y10141554D01*
X969498Y10301452D01*
X969497Y10301455D01*
X967841Y10306332D01*
X869753Y10489822D01*
X743082Y10654881D01*
X591214Y10797099D01*
X586930Y10799961D01*
X586926Y10799964D01*
X422495Y10909810D01*
X418205Y10912676D01*
X384660Y10927871D01*
X228680Y10998524D01*
X229207Y10999686D01*
X176663Y11037922D01*
X150954Y11104100D01*
X150500Y11114789D01*
X150500Y14935180D01*
X6259500Y14935180D01*
X6268233Y14891278D01*
X6275127Y14880960D01*
X6275128Y14880958D01*
X6288437Y14861040D01*
X6301496Y14841496D01*
X6311815Y14834601D01*
X6340958Y14815128D01*
X6340960Y14815127D01*
X6351278Y14808233D01*
X6395180Y14799500D01*
X8124820Y14799500D01*
X8168722Y14808233D01*
X8179040Y14815127D01*
X8179042Y14815128D01*
X8208185Y14834601D01*
X8218504Y14841496D01*
X8231563Y14861040D01*
X8244872Y14880958D01*
X8244873Y14880960D01*
X8251767Y14891278D01*
X8260500Y14935180D01*
X8260500Y15814037D01*
X8794757Y15814037D01*
X8811175Y15618517D01*
X8865258Y15429909D01*
X8868076Y15424426D01*
X8952123Y15260887D01*
X8952126Y15260883D01*
X8954944Y15255399D01*
X9076818Y15101631D01*
X9226238Y14974465D01*
X9231616Y14971459D01*
X9231618Y14971458D01*
X9267932Y14951163D01*
X9397513Y14878743D01*
X9584118Y14818111D01*
X9778946Y14794879D01*
X9785081Y14795351D01*
X9785083Y14795351D01*
X9968434Y14809459D01*
X9968438Y14809460D01*
X9974576Y14809932D01*
X10163556Y14862697D01*
X10338689Y14951163D01*
X10368515Y14974465D01*
X10488453Y15068171D01*
X10493303Y15071960D01*
X10523084Y15106461D01*
X10617485Y15215827D01*
X10617485Y15215828D01*
X10621509Y15220489D01*
X10718425Y15391091D01*
X10765973Y15534025D01*
X11375923Y15534025D01*
X11404025Y15436020D01*
X11408543Y15424608D01*
X11492546Y15261156D01*
X11499196Y15250838D01*
X11613350Y15106811D01*
X11621873Y15097985D01*
X11761833Y14978871D01*
X11771905Y14971870D01*
X11932334Y14882210D01*
X11943574Y14877299D01*
X12068769Y14836621D01*
X12082867Y14836218D01*
X12086000Y14842590D01*
X12086000Y14850742D01*
X12594000Y14850742D01*
X12597973Y14837211D01*
X12606188Y14836030D01*
X12697430Y14861505D01*
X12708881Y14865947D01*
X12872919Y14948807D01*
X12883276Y14955380D01*
X13028100Y15068530D01*
X13036986Y15076991D01*
X13157070Y15216110D01*
X13164144Y15226138D01*
X13254919Y15385932D01*
X13259913Y15397148D01*
X13303712Y15528811D01*
X13304213Y15542903D01*
X13298024Y15546000D01*
X12612115Y15546000D01*
X12596876Y15541525D01*
X12595671Y15540135D01*
X12594000Y15532452D01*
X12594000Y14850742D01*
X12086000Y14850742D01*
X12086000Y15527885D01*
X12081525Y15543124D01*
X12080135Y15544329D01*
X12072452Y15546000D01*
X11390604Y15546000D01*
X11377073Y15542027D01*
X11375923Y15534025D01*
X10765973Y15534025D01*
X10780358Y15577268D01*
X10804949Y15771929D01*
X10805341Y15800000D01*
X10786194Y15995272D01*
X10784413Y16001171D01*
X10784412Y16001176D01*
X10767507Y16057168D01*
X11376594Y16057168D01*
X11383153Y16054000D01*
X12067885Y16054000D01*
X12083124Y16058475D01*
X12084329Y16059865D01*
X12086000Y16067548D01*
X12086000Y16072115D01*
X12594000Y16072115D01*
X12598475Y16056876D01*
X12599865Y16055671D01*
X12607548Y16054000D01*
X13289826Y16054000D01*
X13303357Y16057973D01*
X13304449Y16065567D01*
X13270801Y16177015D01*
X13266126Y16188356D01*
X13179846Y16350627D01*
X13173059Y16360843D01*
X13056899Y16503269D01*
X13048255Y16511973D01*
X12906649Y16629120D01*
X12896478Y16635980D01*
X12734809Y16723394D01*
X12723504Y16728146D01*
X12611308Y16762876D01*
X12597205Y16763082D01*
X12594000Y16756327D01*
X12594000Y16072115D01*
X12086000Y16072115D01*
X12086000Y16749586D01*
X12082027Y16763117D01*
X12074232Y16764237D01*
X11969496Y16733411D01*
X11958119Y16728814D01*
X11795247Y16643667D01*
X11784986Y16636953D01*
X11641751Y16521789D01*
X11632992Y16513211D01*
X11514853Y16372419D01*
X11507927Y16362305D01*
X11419383Y16201243D01*
X11414555Y16189979D01*
X11376898Y16071269D01*
X11376594Y16057168D01*
X10767507Y16057168D01*
X10731265Y16177207D01*
X10729484Y16183106D01*
X10637370Y16356347D01*
X10513361Y16508398D01*
X10362180Y16633465D01*
X10189585Y16726787D01*
X10073000Y16762876D01*
X10008039Y16782985D01*
X10008036Y16782986D01*
X10002152Y16784807D01*
X9996027Y16785451D01*
X9996026Y16785451D01*
X9813147Y16804673D01*
X9813146Y16804673D01*
X9807019Y16805317D01*
X9684733Y16794188D01*
X9617759Y16788093D01*
X9617758Y16788093D01*
X9611618Y16787534D01*
X9605704Y16785793D01*
X9605702Y16785793D01*
X9528538Y16763082D01*
X9423393Y16732136D01*
X9417928Y16729279D01*
X9254972Y16644088D01*
X9254968Y16644085D01*
X9249512Y16641233D01*
X9244712Y16637373D01*
X9244711Y16637373D01*
X9234446Y16629120D01*
X9096600Y16518289D01*
X8970480Y16367984D01*
X8967516Y16362592D01*
X8967513Y16362588D01*
X8888813Y16219433D01*
X8875956Y16196046D01*
X8874095Y16190179D01*
X8874094Y16190177D01*
X8871851Y16183106D01*
X8816628Y16009022D01*
X8794757Y15814037D01*
X8260500Y15814037D01*
X8260500Y16664820D01*
X8251767Y16708722D01*
X8244873Y16719040D01*
X8244872Y16719042D01*
X8225399Y16748185D01*
X8218504Y16758504D01*
X8208185Y16765399D01*
X8179042Y16784872D01*
X8179040Y16784873D01*
X8168722Y16791767D01*
X8124820Y16800500D01*
X6395180Y16800500D01*
X6351278Y16791767D01*
X6340960Y16784873D01*
X6340958Y16784872D01*
X6311815Y16765399D01*
X6301496Y16758504D01*
X6294601Y16748185D01*
X6275128Y16719042D01*
X6275127Y16719040D01*
X6268233Y16708722D01*
X6259500Y16664820D01*
X6259500Y14935180D01*
X150500Y14935180D01*
X150500Y18763598D01*
X151516Y18771315D01*
X151516Y18783978D01*
X155809Y18800000D01*
X152170Y18813583D01*
X152308Y18816043D01*
X165195Y18930420D01*
X171474Y18957928D01*
X210132Y19068407D01*
X222369Y19093820D01*
X284651Y19192943D01*
X302241Y19214998D01*
X385002Y19297759D01*
X407057Y19315349D01*
X506180Y19377631D01*
X531593Y19389868D01*
X642072Y19428526D01*
X669580Y19434805D01*
X783957Y19447692D01*
X786417Y19447830D01*
X800000Y19444191D01*
X816022Y19448484D01*
X828685Y19448484D01*
X836402Y19449500D01*
X8485211Y19449500D01*
X8553332Y19429498D01*
G37*
%TD.AperFunction*%
%TD*%
M02*
