%TF.GenerationSoftware,KiCad,Pcbnew,(6.0.7-1)-1*%
%TF.CreationDate,2022-09-12T14:25:55+08:00*%
%TF.ProjectId,0101-PUSH,30313031-2d50-4555-9348-2e6b69636164,V1.0*%
%TF.SameCoordinates,Original*%
%TF.FileFunction,Copper,L2,Bot*%
%TF.FilePolarity,Positive*%
%FSLAX46Y46*%
G04 Gerber Fmt 4.6, Leading zero omitted, Abs format (unit mm)*
G04 Created by KiCad (PCBNEW (6.0.7-1)-1) date 2022-09-12 14:25:55*
%MOMM*%
%LPD*%
G01*
G04 APERTURE LIST*
%TA.AperFunction,ComponentPad*%
%ADD10R,1.700000X1.700000*%
%TD*%
%TA.AperFunction,ComponentPad*%
%ADD11O,1.700000X1.700000*%
%TD*%
%TA.AperFunction,ComponentPad*%
%ADD12R,1.300000X1.300000*%
%TD*%
%TA.AperFunction,ComponentPad*%
%ADD13C,1.400000*%
%TD*%
%TA.AperFunction,ViaPad*%
%ADD14C,0.500000*%
%TD*%
%TA.AperFunction,ViaPad*%
%ADD15C,0.700000*%
%TD*%
%TA.AperFunction,Conductor*%
%ADD16C,0.200000*%
%TD*%
%TA.AperFunction,Conductor*%
%ADD17C,0.350000*%
%TD*%
G04 APERTURE END LIST*
D10*
%TO.P,J1,1,Pin_1*%
%TO.N,VCC*%
X14840000Y15300000D03*
D11*
%TO.P,J1,2,Pin_2*%
%TO.N,/KEY*%
X12300000Y15300000D03*
%TO.P,J1,3,Pin_3*%
%TO.N,GND*%
X9760000Y15300000D03*
%TD*%
D12*
%TO.P,SW1,1,A*%
%TO.N,unconnected-(SW1-Pad1)*%
X15000000Y4800000D03*
D13*
%TO.P,SW1,2,B*%
%TO.N,VCC*%
X15000000Y7300000D03*
%TO.P,SW1,3,C*%
%TO.N,Net-(R5-Pad2)*%
X15000000Y9800000D03*
%TO.P,SW1,4,A*%
%TO.N,unconnected-(SW1-Pad4)*%
X9600000Y4800000D03*
%TO.P,SW1,5,B*%
%TO.N,/KEY*%
X9600000Y7300000D03*
%TO.P,SW1,6,C*%
%TO.N,Net-(R3-Pad2)*%
X9600000Y9800000D03*
%TD*%
D14*
%TO.N,GND*%
X20300000Y16800000D03*
X4300000Y3300000D03*
X5300000Y2300000D03*
X7600000Y9100000D03*
X18300000Y5300000D03*
X5800000Y10800000D03*
X4300000Y14300000D03*
X4300000Y2300000D03*
X19300000Y1800000D03*
X5300000Y15300000D03*
X14300000Y11800000D03*
X12300000Y8300000D03*
X20300000Y2800000D03*
X20300000Y17800000D03*
X13300000Y11800000D03*
X5300000Y14300000D03*
X12300000Y7300000D03*
X19300000Y17800000D03*
X10300000Y11800000D03*
X11300000Y11800000D03*
X19300000Y2800000D03*
X7600000Y6700000D03*
X20300000Y1800000D03*
X7600000Y8000000D03*
X19300000Y16800000D03*
X4300000Y15300000D03*
X4800000Y4800000D03*
X5300000Y3300000D03*
D15*
%TO.N,VCC*%
X4500000Y8100000D03*
%TD*%
D16*
%TO.N,VCC*%
X13800000Y6100000D02*
X15000000Y7300000D01*
X6500000Y6100000D02*
X13800000Y6100000D01*
D17*
X15000000Y7300000D02*
X16300000Y8600000D01*
X16300000Y13840000D02*
X14840000Y15300000D01*
D16*
X4500000Y8100000D02*
X6500000Y6100000D01*
D17*
X16300000Y8600000D02*
X16300000Y13840000D01*
%TD*%
%TA.AperFunction,Conductor*%
%TO.N,GND*%
G36*
X9421336Y19429498D02*
G01*
X9467829Y19375842D01*
X9478127Y19340023D01*
X9483718Y19297759D01*
X9488453Y19261960D01*
X9568885Y18942508D01*
X9570169Y18939115D01*
X9570171Y18939109D01*
X9684200Y18637806D01*
X9684203Y18637798D01*
X9685485Y18634412D01*
X9836710Y18341752D01*
X10020557Y18068404D01*
X10234592Y17817988D01*
X10237244Y17815525D01*
X10237249Y17815520D01*
X10374124Y17688409D01*
X10475978Y17593820D01*
X10741521Y17398869D01*
X10815263Y17356829D01*
X11024553Y17237513D01*
X11024558Y17237510D01*
X11027704Y17235717D01*
X11330735Y17106525D01*
X11504803Y17054986D01*
X11643126Y17014031D01*
X11643134Y17014029D01*
X11646603Y17013002D01*
X11971124Y16956389D01*
X12300000Y16937434D01*
X12628876Y16956389D01*
X12953397Y17013002D01*
X12956866Y17014029D01*
X12956874Y17014031D01*
X13095197Y17054986D01*
X13269265Y17106525D01*
X13572296Y17235717D01*
X13575442Y17237510D01*
X13575447Y17237513D01*
X13784737Y17356829D01*
X13858479Y17398869D01*
X14124022Y17593820D01*
X14225876Y17688409D01*
X14362751Y17815520D01*
X14362756Y17815525D01*
X14365408Y17817988D01*
X14579443Y18068404D01*
X14763290Y18341752D01*
X14914515Y18634412D01*
X14915797Y18637798D01*
X14915800Y18637806D01*
X15029829Y18939109D01*
X15029831Y18939115D01*
X15031115Y18942508D01*
X15111547Y19261960D01*
X15116283Y19297759D01*
X15121873Y19340023D01*
X15150635Y19404933D01*
X15209925Y19443988D01*
X15246785Y19449500D01*
X21263598Y19449500D01*
X21271315Y19448484D01*
X21283978Y19448484D01*
X21300000Y19444191D01*
X21313583Y19447830D01*
X21316043Y19447692D01*
X21430420Y19434805D01*
X21457928Y19428526D01*
X21568407Y19389868D01*
X21593820Y19377631D01*
X21692943Y19315349D01*
X21714998Y19297759D01*
X21797759Y19214998D01*
X21815349Y19192943D01*
X21877631Y19093820D01*
X21889868Y19068407D01*
X21928526Y18957928D01*
X21934805Y18930420D01*
X21947692Y18816043D01*
X21947830Y18813583D01*
X21944191Y18800000D01*
X21948484Y18783978D01*
X21948484Y18771315D01*
X21949500Y18763598D01*
X21949501Y12336402D01*
X21948485Y12328685D01*
X21948485Y12316022D01*
X21944192Y12300000D01*
X21948485Y12283978D01*
X21948485Y12281468D01*
X21949762Y12275047D01*
X21958523Y12208502D01*
X21993840Y12123238D01*
X22050021Y12050021D01*
X22056574Y12044993D01*
X22116684Y11998869D01*
X22116688Y11998867D01*
X22123239Y11993840D01*
X22208502Y11958523D01*
X22275047Y11949762D01*
X22281468Y11948485D01*
X22283978Y11948485D01*
X22300000Y11944192D01*
X22315517Y11948350D01*
X22319628Y11948215D01*
X22572324Y11931652D01*
X22588664Y11929501D01*
X22848231Y11877870D01*
X22864152Y11873604D01*
X23114759Y11788534D01*
X23129985Y11782227D01*
X23367343Y11665175D01*
X23381617Y11656934D01*
X23601668Y11509901D01*
X23614743Y11499868D01*
X23813725Y11325366D01*
X23825366Y11313725D01*
X23929846Y11194588D01*
X23999868Y11114743D01*
X24009901Y11101668D01*
X24156932Y10881619D01*
X24165173Y10867346D01*
X24282228Y10629983D01*
X24288535Y10614756D01*
X24373604Y10364152D01*
X24377870Y10348231D01*
X24429501Y10088664D01*
X24431652Y10072324D01*
X24448961Y9808241D01*
X24448961Y9791759D01*
X24431652Y9527676D01*
X24429501Y9511336D01*
X24377870Y9251769D01*
X24373604Y9235848D01*
X24288534Y8985241D01*
X24282227Y8970015D01*
X24165175Y8732657D01*
X24156934Y8718383D01*
X24009901Y8498332D01*
X23999868Y8485257D01*
X23825366Y8286275D01*
X23813725Y8274634D01*
X23666610Y8145618D01*
X23614743Y8100132D01*
X23601668Y8090099D01*
X23381617Y7943066D01*
X23367343Y7934825D01*
X23129985Y7817773D01*
X23114759Y7811466D01*
X22864152Y7726396D01*
X22848231Y7722130D01*
X22588664Y7670499D01*
X22572324Y7668348D01*
X22319628Y7651785D01*
X22315517Y7651650D01*
X22300000Y7655808D01*
X22283978Y7651515D01*
X22281468Y7651515D01*
X22275047Y7650238D01*
X22208502Y7641477D01*
X22123239Y7606160D01*
X22116688Y7601133D01*
X22116684Y7601131D01*
X22069903Y7565235D01*
X22050021Y7549979D01*
X22044995Y7543429D01*
X21998869Y7483316D01*
X21998867Y7483312D01*
X21993840Y7476761D01*
X21958523Y7391498D01*
X21949762Y7324953D01*
X21948485Y7318532D01*
X21948485Y7316022D01*
X21944192Y7300000D01*
X21948485Y7283978D01*
X21948485Y7271315D01*
X21949501Y7263598D01*
X21949500Y836402D01*
X21948484Y828685D01*
X21948484Y816022D01*
X21944191Y800000D01*
X21947830Y786417D01*
X21947692Y783957D01*
X21934805Y669580D01*
X21928526Y642072D01*
X21889868Y531593D01*
X21877631Y506180D01*
X21815349Y407057D01*
X21797759Y385002D01*
X21714998Y302241D01*
X21692943Y284651D01*
X21593820Y222369D01*
X21568407Y210132D01*
X21457928Y171474D01*
X21430420Y165195D01*
X21316043Y152308D01*
X21313583Y152170D01*
X21300000Y155809D01*
X21283978Y151516D01*
X21271315Y151516D01*
X21263598Y150500D01*
X15246785Y150500D01*
X15178664Y170502D01*
X15132171Y224158D01*
X15121873Y259977D01*
X15112023Y334443D01*
X15112022Y334446D01*
X15111547Y338040D01*
X15031115Y657492D01*
X15029829Y660891D01*
X14915800Y962194D01*
X14915797Y962202D01*
X14914515Y965588D01*
X14763290Y1258248D01*
X14579443Y1531596D01*
X14365408Y1782012D01*
X14362756Y1784475D01*
X14362751Y1784480D01*
X14225876Y1911591D01*
X14124022Y2006180D01*
X13858479Y2201131D01*
X13693342Y2295275D01*
X13575447Y2362487D01*
X13575442Y2362490D01*
X13572296Y2364283D01*
X13269265Y2493475D01*
X13095197Y2545014D01*
X12956874Y2585969D01*
X12956866Y2585971D01*
X12953397Y2586998D01*
X12628876Y2643611D01*
X12300000Y2662566D01*
X11971124Y2643611D01*
X11646603Y2586998D01*
X11643134Y2585971D01*
X11643126Y2585969D01*
X11504803Y2545014D01*
X11330735Y2493475D01*
X11027704Y2364283D01*
X11024558Y2362490D01*
X11024553Y2362487D01*
X10906658Y2295275D01*
X10741521Y2201131D01*
X10475978Y2006180D01*
X10374124Y1911591D01*
X10237249Y1784480D01*
X10237244Y1784475D01*
X10234592Y1782012D01*
X10020557Y1531596D01*
X9836710Y1258248D01*
X9685485Y965588D01*
X9684203Y962202D01*
X9684200Y962194D01*
X9570171Y660891D01*
X9568885Y657492D01*
X9488453Y338040D01*
X9487978Y334446D01*
X9487977Y334443D01*
X9478127Y259977D01*
X9449365Y195067D01*
X9390075Y156012D01*
X9353215Y150500D01*
X3336402Y150500D01*
X3328685Y151516D01*
X3316022Y151516D01*
X3300000Y155809D01*
X3286417Y152170D01*
X3283957Y152308D01*
X3169580Y165195D01*
X3142072Y171474D01*
X3031593Y210132D01*
X3006180Y222369D01*
X2907057Y284651D01*
X2885002Y302241D01*
X2802241Y385002D01*
X2784651Y407057D01*
X2722369Y506180D01*
X2710132Y531593D01*
X2671474Y642072D01*
X2665195Y669580D01*
X2652308Y783957D01*
X2652170Y786417D01*
X2655809Y800000D01*
X2651516Y816022D01*
X2651516Y828685D01*
X2650500Y836402D01*
X2650500Y7263598D01*
X2651516Y7271315D01*
X2651516Y7283978D01*
X2655809Y7300000D01*
X2651516Y7316022D01*
X2651516Y7318532D01*
X2650239Y7324953D01*
X2647357Y7346845D01*
X2641478Y7391499D01*
X2606161Y7476762D01*
X2584835Y7504555D01*
X2555005Y7543429D01*
X2549979Y7549979D01*
X2483673Y7600858D01*
X2483315Y7601133D01*
X2483313Y7601134D01*
X2476762Y7606161D01*
X2425187Y7627524D01*
X2399129Y7638318D01*
X2399126Y7638319D01*
X2391499Y7641478D01*
X2324953Y7650239D01*
X2318532Y7651516D01*
X2316022Y7651516D01*
X2300000Y7655809D01*
X2284483Y7651651D01*
X2280372Y7651786D01*
X2027676Y7668349D01*
X2011336Y7670500D01*
X1751769Y7722131D01*
X1735848Y7726397D01*
X1485241Y7811467D01*
X1470015Y7817774D01*
X1232658Y7934825D01*
X1218384Y7943066D01*
X998337Y8090097D01*
X985261Y8100130D01*
X978366Y8106177D01*
X3994391Y8106177D01*
X3995555Y8097275D01*
X3995555Y8097272D01*
X3996814Y8087646D01*
X4012980Y7964021D01*
X4070720Y7832797D01*
X4076497Y7825924D01*
X4076498Y7825923D01*
X4100857Y7796944D01*
X4162970Y7723052D01*
X4170447Y7718075D01*
X4270737Y7651316D01*
X4282313Y7643610D01*
X4419157Y7600858D01*
X4428129Y7600694D01*
X4428132Y7600693D01*
X4493463Y7599496D01*
X4562499Y7598230D01*
X4571163Y7600592D01*
X4575835Y7601174D01*
X4645906Y7589745D01*
X4680505Y7565235D01*
X6296642Y5949098D01*
X6312312Y5930005D01*
X6312505Y5929716D01*
X6312507Y5929714D01*
X6319399Y5919399D01*
X6372464Y5883943D01*
X6402259Y5864034D01*
X6500000Y5844592D01*
X6512171Y5847013D01*
X6512172Y5847013D01*
X6512504Y5847079D01*
X6537085Y5849500D01*
X9273398Y5849500D01*
X9341519Y5829498D01*
X9388012Y5775842D01*
X9398116Y5705568D01*
X9368622Y5640988D01*
X9324647Y5608393D01*
X9178438Y5543297D01*
X9178436Y5543296D01*
X9172408Y5540612D01*
X9167067Y5536732D01*
X9167066Y5536731D01*
X9128515Y5508722D01*
X9027770Y5435526D01*
X8908141Y5302665D01*
X8818750Y5147835D01*
X8763503Y4977803D01*
X8744815Y4800000D01*
X8763503Y4622197D01*
X8818750Y4452165D01*
X8908141Y4297335D01*
X9027770Y4164474D01*
X9033109Y4160595D01*
X9142719Y4080958D01*
X9172407Y4059388D01*
X9178435Y4056704D01*
X9178437Y4056703D01*
X9292741Y4005812D01*
X9335733Y3986671D01*
X9423171Y3968086D01*
X9504152Y3950872D01*
X9504156Y3950872D01*
X9510609Y3949500D01*
X9689391Y3949500D01*
X9695844Y3950872D01*
X9695848Y3950872D01*
X9776829Y3968086D01*
X9864267Y3986671D01*
X9907259Y4005812D01*
X10021563Y4056703D01*
X10021565Y4056704D01*
X10027593Y4059388D01*
X10057282Y4080958D01*
X10131911Y4135180D01*
X14199500Y4135180D01*
X14208233Y4091278D01*
X14215127Y4080960D01*
X14215128Y4080958D01*
X14226948Y4063269D01*
X14241496Y4041496D01*
X14251815Y4034601D01*
X14280958Y4015128D01*
X14280960Y4015127D01*
X14291278Y4008233D01*
X14335180Y3999500D01*
X15664820Y3999500D01*
X15708722Y4008233D01*
X15719040Y4015127D01*
X15719042Y4015128D01*
X15748185Y4034601D01*
X15758504Y4041496D01*
X15773052Y4063269D01*
X15784872Y4080958D01*
X15784873Y4080960D01*
X15791767Y4091278D01*
X15800500Y4135180D01*
X15800500Y5464820D01*
X15791767Y5508722D01*
X15784873Y5519040D01*
X15784872Y5519042D01*
X15765399Y5548185D01*
X15758504Y5558504D01*
X15748185Y5565399D01*
X15719042Y5584872D01*
X15719040Y5584873D01*
X15708722Y5591767D01*
X15664820Y5600500D01*
X14335180Y5600500D01*
X14291278Y5591767D01*
X14280960Y5584873D01*
X14280958Y5584872D01*
X14251815Y5565399D01*
X14241496Y5558504D01*
X14234601Y5548185D01*
X14215128Y5519042D01*
X14215127Y5519040D01*
X14208233Y5508722D01*
X14199500Y5464820D01*
X14199500Y4135180D01*
X10131911Y4135180D01*
X10166891Y4160595D01*
X10172230Y4164474D01*
X10291859Y4297335D01*
X10381250Y4452165D01*
X10436497Y4622197D01*
X10455185Y4800000D01*
X10436497Y4977803D01*
X10381250Y5147835D01*
X10291859Y5302665D01*
X10172230Y5435526D01*
X10088237Y5496551D01*
X10032935Y5536731D01*
X10032933Y5536732D01*
X10027593Y5540612D01*
X10021565Y5543296D01*
X10021563Y5543297D01*
X9875354Y5608393D01*
X9821258Y5654373D01*
X9800609Y5722300D01*
X9819961Y5790608D01*
X9873172Y5837610D01*
X9926603Y5849500D01*
X13762915Y5849500D01*
X13787496Y5847079D01*
X13787828Y5847013D01*
X13787829Y5847013D01*
X13800000Y5844592D01*
X13812171Y5847013D01*
X13885570Y5861613D01*
X13897741Y5864034D01*
X13927536Y5883943D01*
X13980601Y5919399D01*
X13987493Y5929714D01*
X13987495Y5929716D01*
X13987688Y5930005D01*
X14003358Y5949098D01*
X14539709Y6485449D01*
X14602021Y6519475D01*
X14672836Y6514410D01*
X14680052Y6511461D01*
X14729698Y6489357D01*
X14729706Y6489354D01*
X14735733Y6486671D01*
X14823171Y6468085D01*
X14904152Y6450872D01*
X14904156Y6450872D01*
X14910609Y6449500D01*
X15089391Y6449500D01*
X15095844Y6450872D01*
X15095848Y6450872D01*
X15176829Y6468086D01*
X15264267Y6486671D01*
X15319947Y6511461D01*
X15421563Y6556703D01*
X15421565Y6556704D01*
X15427593Y6559388D01*
X15572230Y6664474D01*
X15691859Y6797335D01*
X15748181Y6894888D01*
X15777946Y6946442D01*
X15777947Y6946443D01*
X15781250Y6952165D01*
X15836497Y7122197D01*
X15855185Y7300000D01*
X15836497Y7477803D01*
X15827805Y7504555D01*
X15811710Y7554092D01*
X15809683Y7625059D01*
X15842448Y7682122D01*
X16516215Y8355889D01*
X16524319Y8363316D01*
X16544749Y8380459D01*
X16553194Y8387545D01*
X16558707Y8397094D01*
X16572039Y8420185D01*
X16577945Y8429456D01*
X16593230Y8451285D01*
X16599554Y8460316D01*
X16602408Y8470966D01*
X16603885Y8474134D01*
X16605077Y8477410D01*
X16610588Y8486955D01*
X16617130Y8524058D01*
X16619509Y8534790D01*
X16624691Y8554129D01*
X16629264Y8571193D01*
X16625979Y8608743D01*
X16625500Y8619724D01*
X16625500Y9800000D01*
X20944341Y9800000D01*
X20964937Y9564592D01*
X20966361Y9559278D01*
X20966361Y9559277D01*
X21014493Y9379646D01*
X21026097Y9336337D01*
X21028419Y9331357D01*
X21028420Y9331355D01*
X21106239Y9164474D01*
X21125965Y9122171D01*
X21261505Y8928599D01*
X21428599Y8761505D01*
X21622171Y8625965D01*
X21627149Y8623644D01*
X21627152Y8623642D01*
X21817695Y8534790D01*
X21836337Y8526097D01*
X21841645Y8524675D01*
X21841647Y8524674D01*
X22059277Y8466361D01*
X22064592Y8464937D01*
X22167682Y8455918D01*
X22238310Y8449738D01*
X22238317Y8449738D01*
X22241034Y8449500D01*
X22358966Y8449500D01*
X22361683Y8449738D01*
X22361690Y8449738D01*
X22432318Y8455918D01*
X22535408Y8464937D01*
X22540723Y8466361D01*
X22758353Y8524674D01*
X22758355Y8524675D01*
X22763663Y8526097D01*
X22782305Y8534790D01*
X22972848Y8623642D01*
X22972851Y8623644D01*
X22977829Y8625965D01*
X23171401Y8761505D01*
X23338495Y8928599D01*
X23341655Y8933111D01*
X23470878Y9117661D01*
X23470881Y9117666D01*
X23474035Y9122170D01*
X23476358Y9127152D01*
X23476361Y9127157D01*
X23571580Y9331355D01*
X23571581Y9331356D01*
X23573903Y9336337D01*
X23585508Y9379646D01*
X23633639Y9559277D01*
X23633639Y9559278D01*
X23635063Y9564592D01*
X23655659Y9800000D01*
X23635063Y10035408D01*
X23620793Y10088664D01*
X23575326Y10258353D01*
X23575325Y10258355D01*
X23573903Y10263663D01*
X23534468Y10348231D01*
X23476358Y10472848D01*
X23476356Y10472851D01*
X23474035Y10477829D01*
X23338495Y10671401D01*
X23171401Y10838495D01*
X22977829Y10974035D01*
X22972851Y10976356D01*
X22972848Y10976358D01*
X22768645Y11071580D01*
X22768643Y11071581D01*
X22763663Y11073903D01*
X22758355Y11075325D01*
X22758353Y11075326D01*
X22540723Y11133639D01*
X22540722Y11133639D01*
X22535408Y11135063D01*
X22432318Y11144082D01*
X22361690Y11150262D01*
X22361683Y11150262D01*
X22358966Y11150500D01*
X22241034Y11150500D01*
X22238317Y11150262D01*
X22238310Y11150262D01*
X22167682Y11144082D01*
X22064592Y11135063D01*
X22059278Y11133639D01*
X22059277Y11133639D01*
X21841647Y11075326D01*
X21841645Y11075325D01*
X21836337Y11073903D01*
X21831357Y11071581D01*
X21831355Y11071580D01*
X21627152Y10976358D01*
X21627149Y10976356D01*
X21622171Y10974035D01*
X21428599Y10838495D01*
X21261505Y10671401D01*
X21258348Y10666893D01*
X21258346Y10666890D01*
X21169925Y10540612D01*
X21125965Y10477830D01*
X21123642Y10472848D01*
X21123639Y10472843D01*
X21041616Y10296944D01*
X21026097Y10263663D01*
X21024675Y10258355D01*
X21024674Y10258353D01*
X20979207Y10088664D01*
X20964937Y10035408D01*
X20944341Y9800000D01*
X16625500Y9800000D01*
X16625500Y13820290D01*
X16625980Y13831272D01*
X16628303Y13857820D01*
X16628303Y13857822D01*
X16629264Y13868807D01*
X16619508Y13905215D01*
X16617130Y13915942D01*
X16616538Y13919301D01*
X16610588Y13953045D01*
X16605077Y13962590D01*
X16603885Y13965866D01*
X16602408Y13969034D01*
X16599554Y13979684D01*
X16577945Y14010544D01*
X16572039Y14019815D01*
X16558707Y14042906D01*
X16553194Y14052455D01*
X16524317Y14076685D01*
X16516215Y14084111D01*
X15877405Y14722921D01*
X15843379Y14785233D01*
X15840500Y14812016D01*
X15840500Y16164820D01*
X15831767Y16208722D01*
X15824873Y16219040D01*
X15824872Y16219042D01*
X15805399Y16248185D01*
X15798504Y16258504D01*
X15788185Y16265399D01*
X15759042Y16284872D01*
X15759040Y16284873D01*
X15748722Y16291767D01*
X15704820Y16300500D01*
X13975180Y16300500D01*
X13931278Y16291767D01*
X13920960Y16284873D01*
X13920958Y16284872D01*
X13891815Y16265399D01*
X13881496Y16258504D01*
X13874601Y16248185D01*
X13855128Y16219042D01*
X13855127Y16219040D01*
X13848233Y16208722D01*
X13839500Y16164820D01*
X13839500Y14435180D01*
X13848233Y14391278D01*
X13855127Y14380960D01*
X13855128Y14380958D01*
X13868437Y14361040D01*
X13881496Y14341496D01*
X13891815Y14334601D01*
X13920958Y14315128D01*
X13920960Y14315127D01*
X13931278Y14308233D01*
X13975180Y14299500D01*
X15327984Y14299500D01*
X15396105Y14279498D01*
X15417079Y14262595D01*
X15937595Y13742079D01*
X15971621Y13679767D01*
X15974500Y13652984D01*
X15974500Y10283354D01*
X15954498Y10215233D01*
X15900842Y10168740D01*
X15830568Y10158636D01*
X15765988Y10188130D01*
X15739381Y10220354D01*
X15695162Y10296945D01*
X15695159Y10296949D01*
X15691859Y10302665D01*
X15636496Y10364152D01*
X15576645Y10430623D01*
X15576643Y10430624D01*
X15572230Y10435526D01*
X15427593Y10540612D01*
X15421565Y10543296D01*
X15421563Y10543297D01*
X15270298Y10610644D01*
X15270297Y10610644D01*
X15264267Y10613329D01*
X15176829Y10631914D01*
X15095848Y10649128D01*
X15095844Y10649128D01*
X15089391Y10650500D01*
X14910609Y10650500D01*
X14904156Y10649128D01*
X14904152Y10649128D01*
X14823171Y10631914D01*
X14735733Y10613329D01*
X14729703Y10610644D01*
X14729702Y10610644D01*
X14578438Y10543297D01*
X14578436Y10543296D01*
X14572408Y10540612D01*
X14427770Y10435526D01*
X14423357Y10430624D01*
X14423355Y10430623D01*
X14363504Y10364152D01*
X14308141Y10302665D01*
X14218750Y10147835D01*
X14216708Y10141550D01*
X14180440Y10029928D01*
X14163503Y9977803D01*
X14144815Y9800000D01*
X14163503Y9622197D01*
X14165543Y9615920D01*
X14165543Y9615918D01*
X14182220Y9564592D01*
X14218750Y9452165D01*
X14308141Y9297335D01*
X14312559Y9292428D01*
X14312560Y9292427D01*
X14384541Y9212485D01*
X14427770Y9164474D01*
X14572407Y9059388D01*
X14578435Y9056704D01*
X14578437Y9056703D01*
X14729702Y8989356D01*
X14735733Y8986671D01*
X14823171Y8968086D01*
X14904152Y8950872D01*
X14904156Y8950872D01*
X14910609Y8949500D01*
X15089391Y8949500D01*
X15095844Y8950872D01*
X15095848Y8950872D01*
X15176829Y8968085D01*
X15264267Y8986671D01*
X15270298Y8989356D01*
X15421563Y9056703D01*
X15421565Y9056704D01*
X15427593Y9059388D01*
X15572230Y9164474D01*
X15615460Y9212485D01*
X15687440Y9292427D01*
X15687441Y9292428D01*
X15691859Y9297335D01*
X15695159Y9303051D01*
X15695162Y9303055D01*
X15739381Y9379646D01*
X15790763Y9428639D01*
X15860477Y9442075D01*
X15926388Y9415689D01*
X15967570Y9357857D01*
X15974500Y9316646D01*
X15974500Y8787016D01*
X15954498Y8718895D01*
X15937595Y8697921D01*
X15385292Y8145618D01*
X15322980Y8111592D01*
X15264520Y8114518D01*
X15264267Y8113329D01*
X15095848Y8149128D01*
X15095844Y8149128D01*
X15089391Y8150500D01*
X14910609Y8150500D01*
X14904156Y8149128D01*
X14904152Y8149128D01*
X14823171Y8131914D01*
X14735733Y8113329D01*
X14729703Y8110644D01*
X14729702Y8110644D01*
X14578438Y8043297D01*
X14578436Y8043296D01*
X14572408Y8040612D01*
X14567067Y8036732D01*
X14567066Y8036731D01*
X14473519Y7968765D01*
X14427770Y7935526D01*
X14423357Y7930624D01*
X14423355Y7930623D01*
X14321745Y7817774D01*
X14308141Y7802665D01*
X14304838Y7796944D01*
X14230906Y7668889D01*
X14218750Y7647835D01*
X14216684Y7641477D01*
X14186955Y7549979D01*
X14163503Y7477803D01*
X14144815Y7300000D01*
X14163503Y7122197D01*
X14165543Y7115920D01*
X14165543Y7115918D01*
X14214302Y6965855D01*
X14216330Y6894888D01*
X14183564Y6837824D01*
X13733145Y6387405D01*
X13670833Y6353379D01*
X13644050Y6350500D01*
X10127871Y6350500D01*
X10059750Y6370502D01*
X10013257Y6424158D01*
X10003153Y6494432D01*
X10032647Y6559012D01*
X10053810Y6578436D01*
X10166891Y6660595D01*
X10172230Y6664474D01*
X10291859Y6797335D01*
X10348181Y6894888D01*
X10377946Y6946442D01*
X10377947Y6946443D01*
X10381250Y6952165D01*
X10436497Y7122197D01*
X10455185Y7300000D01*
X10436497Y7477803D01*
X10413046Y7549979D01*
X10383316Y7641477D01*
X10381250Y7647835D01*
X10369095Y7668889D01*
X10295162Y7796944D01*
X10291859Y7802665D01*
X10278255Y7817774D01*
X10176645Y7930623D01*
X10176643Y7930624D01*
X10172230Y7935526D01*
X10027593Y8040612D01*
X10021565Y8043296D01*
X10021563Y8043297D01*
X9870298Y8110644D01*
X9870297Y8110644D01*
X9864267Y8113329D01*
X9776829Y8131914D01*
X9695848Y8149128D01*
X9695844Y8149128D01*
X9689391Y8150500D01*
X9510609Y8150500D01*
X9504156Y8149128D01*
X9504152Y8149128D01*
X9423171Y8131914D01*
X9335733Y8113329D01*
X9329703Y8110644D01*
X9329702Y8110644D01*
X9178438Y8043297D01*
X9178436Y8043296D01*
X9172408Y8040612D01*
X9167067Y8036732D01*
X9167066Y8036731D01*
X9073519Y7968765D01*
X9027770Y7935526D01*
X9023357Y7930624D01*
X9023355Y7930623D01*
X8921745Y7817774D01*
X8908141Y7802665D01*
X8904838Y7796944D01*
X8830906Y7668889D01*
X8818750Y7647835D01*
X8816684Y7641477D01*
X8786955Y7549979D01*
X8763503Y7477803D01*
X8744815Y7300000D01*
X8763503Y7122197D01*
X8818750Y6952165D01*
X8822053Y6946443D01*
X8822054Y6946442D01*
X8851819Y6894888D01*
X8908141Y6797335D01*
X9027770Y6664474D01*
X9033109Y6660595D01*
X9146190Y6578436D01*
X9189544Y6522213D01*
X9195619Y6451477D01*
X9162487Y6388685D01*
X9100667Y6353774D01*
X9072129Y6350500D01*
X6655950Y6350500D01*
X6587829Y6370502D01*
X6566855Y6387405D01*
X5031432Y7922828D01*
X4997406Y7985140D01*
X4996273Y8032828D01*
X4997583Y8040612D01*
X5005496Y8087646D01*
X5005647Y8100000D01*
X4985323Y8241918D01*
X4925984Y8372428D01*
X4884834Y8420185D01*
X4838260Y8474237D01*
X4838257Y8474240D01*
X4832400Y8481037D01*
X4712095Y8559015D01*
X4574739Y8600093D01*
X4565763Y8600148D01*
X4565762Y8600148D01*
X4505555Y8600516D01*
X4431376Y8600969D01*
X4293529Y8561572D01*
X4172280Y8485070D01*
X4077377Y8377612D01*
X4016447Y8247837D01*
X3994391Y8106177D01*
X978366Y8106177D01*
X786283Y8274629D01*
X774629Y8286283D01*
X600130Y8485261D01*
X590097Y8498337D01*
X443066Y8718384D01*
X434825Y8732658D01*
X317774Y8970015D01*
X311467Y8985241D01*
X226397Y9235848D01*
X222131Y9251769D01*
X170500Y9511336D01*
X168349Y9527676D01*
X151040Y9791759D01*
X151040Y9800000D01*
X944341Y9800000D01*
X964937Y9564592D01*
X966361Y9559278D01*
X966361Y9559277D01*
X1014493Y9379646D01*
X1026097Y9336337D01*
X1028419Y9331357D01*
X1028420Y9331355D01*
X1106239Y9164474D01*
X1125965Y9122171D01*
X1261505Y8928599D01*
X1428599Y8761505D01*
X1622171Y8625965D01*
X1627149Y8623644D01*
X1627152Y8623642D01*
X1817695Y8534790D01*
X1836337Y8526097D01*
X1841645Y8524675D01*
X1841647Y8524674D01*
X2059277Y8466361D01*
X2064592Y8464937D01*
X2167682Y8455918D01*
X2238310Y8449738D01*
X2238317Y8449738D01*
X2241034Y8449500D01*
X2358966Y8449500D01*
X2361683Y8449738D01*
X2361690Y8449738D01*
X2432318Y8455918D01*
X2535408Y8464937D01*
X2540723Y8466361D01*
X2758353Y8524674D01*
X2758355Y8524675D01*
X2763663Y8526097D01*
X2782305Y8534790D01*
X2972848Y8623642D01*
X2972851Y8623644D01*
X2977829Y8625965D01*
X3171401Y8761505D01*
X3338495Y8928599D01*
X3341655Y8933111D01*
X3470878Y9117661D01*
X3470881Y9117666D01*
X3474035Y9122170D01*
X3476358Y9127152D01*
X3476361Y9127157D01*
X3571580Y9331355D01*
X3571581Y9331356D01*
X3573903Y9336337D01*
X3585508Y9379646D01*
X3633639Y9559277D01*
X3633639Y9559278D01*
X3635063Y9564592D01*
X3655659Y9800000D01*
X8744815Y9800000D01*
X8763503Y9622197D01*
X8765543Y9615920D01*
X8765543Y9615918D01*
X8782220Y9564592D01*
X8818750Y9452165D01*
X8908141Y9297335D01*
X8912559Y9292428D01*
X8912560Y9292427D01*
X8984541Y9212485D01*
X9027770Y9164474D01*
X9172407Y9059388D01*
X9178435Y9056704D01*
X9178437Y9056703D01*
X9329702Y8989356D01*
X9335733Y8986671D01*
X9423171Y8968086D01*
X9504152Y8950872D01*
X9504156Y8950872D01*
X9510609Y8949500D01*
X9689391Y8949500D01*
X9695844Y8950872D01*
X9695848Y8950872D01*
X9776829Y8968085D01*
X9864267Y8986671D01*
X9870298Y8989356D01*
X10021563Y9056703D01*
X10021565Y9056704D01*
X10027593Y9059388D01*
X10172230Y9164474D01*
X10215460Y9212485D01*
X10287440Y9292427D01*
X10287441Y9292428D01*
X10291859Y9297335D01*
X10381250Y9452165D01*
X10417780Y9564592D01*
X10434457Y9615918D01*
X10434457Y9615920D01*
X10436497Y9622197D01*
X10455185Y9800000D01*
X10436497Y9977803D01*
X10419561Y10029928D01*
X10383292Y10141550D01*
X10381250Y10147835D01*
X10291859Y10302665D01*
X10236496Y10364152D01*
X10176645Y10430623D01*
X10176643Y10430624D01*
X10172230Y10435526D01*
X10027593Y10540612D01*
X10021565Y10543296D01*
X10021563Y10543297D01*
X9870298Y10610644D01*
X9870297Y10610644D01*
X9864267Y10613329D01*
X9776829Y10631914D01*
X9695848Y10649128D01*
X9695844Y10649128D01*
X9689391Y10650500D01*
X9510609Y10650500D01*
X9504156Y10649128D01*
X9504152Y10649128D01*
X9423171Y10631914D01*
X9335733Y10613329D01*
X9329703Y10610644D01*
X9329702Y10610644D01*
X9178438Y10543297D01*
X9178436Y10543296D01*
X9172408Y10540612D01*
X9027770Y10435526D01*
X9023357Y10430624D01*
X9023355Y10430623D01*
X8963504Y10364152D01*
X8908141Y10302665D01*
X8818750Y10147835D01*
X8816708Y10141550D01*
X8780440Y10029928D01*
X8763503Y9977803D01*
X8744815Y9800000D01*
X3655659Y9800000D01*
X3635063Y10035408D01*
X3620793Y10088664D01*
X3575326Y10258353D01*
X3575325Y10258355D01*
X3573903Y10263663D01*
X3534468Y10348231D01*
X3476358Y10472848D01*
X3476356Y10472851D01*
X3474035Y10477829D01*
X3338495Y10671401D01*
X3171401Y10838495D01*
X2977829Y10974035D01*
X2972851Y10976356D01*
X2972848Y10976358D01*
X2768645Y11071580D01*
X2768643Y11071581D01*
X2763663Y11073903D01*
X2758355Y11075325D01*
X2758353Y11075326D01*
X2540723Y11133639D01*
X2540722Y11133639D01*
X2535408Y11135063D01*
X2432318Y11144082D01*
X2361690Y11150262D01*
X2361683Y11150262D01*
X2358966Y11150500D01*
X2241034Y11150500D01*
X2238317Y11150262D01*
X2238310Y11150262D01*
X2167682Y11144082D01*
X2064592Y11135063D01*
X2059278Y11133639D01*
X2059277Y11133639D01*
X1841647Y11075326D01*
X1841645Y11075325D01*
X1836337Y11073903D01*
X1831357Y11071581D01*
X1831355Y11071580D01*
X1627152Y10976358D01*
X1627149Y10976356D01*
X1622171Y10974035D01*
X1428599Y10838495D01*
X1261505Y10671401D01*
X1258348Y10666893D01*
X1258346Y10666890D01*
X1169925Y10540612D01*
X1125965Y10477830D01*
X1123642Y10472848D01*
X1123639Y10472843D01*
X1041616Y10296944D01*
X1026097Y10263663D01*
X1024675Y10258355D01*
X1024674Y10258353D01*
X979207Y10088664D01*
X964937Y10035408D01*
X944341Y9800000D01*
X151040Y9800000D01*
X151040Y9808241D01*
X168349Y10072324D01*
X170500Y10088664D01*
X222131Y10348231D01*
X226397Y10364152D01*
X311467Y10614759D01*
X317774Y10629985D01*
X434825Y10867342D01*
X443066Y10881616D01*
X590097Y11101663D01*
X600130Y11114739D01*
X774629Y11313717D01*
X786283Y11325371D01*
X985261Y11499870D01*
X998337Y11509903D01*
X1218384Y11656934D01*
X1232658Y11665175D01*
X1470015Y11782226D01*
X1485241Y11788533D01*
X1735848Y11873603D01*
X1751769Y11877869D01*
X2011336Y11929500D01*
X2027676Y11931651D01*
X2218993Y11944191D01*
X2277963Y11948056D01*
X2284841Y11948253D01*
X2300000Y11944191D01*
X2300004Y11944192D01*
X2314560Y11948092D01*
X2316485Y11948076D01*
X2324955Y11949761D01*
X2383311Y11957444D01*
X2391499Y11958522D01*
X2399126Y11961681D01*
X2399129Y11961682D01*
X2434130Y11976180D01*
X2476762Y11993839D01*
X2483318Y11998869D01*
X2543429Y12044995D01*
X2549979Y12050021D01*
X2560500Y12063732D01*
X2601133Y12116685D01*
X2601134Y12116687D01*
X2606161Y12123238D01*
X2641478Y12208501D01*
X2650239Y12275047D01*
X2651516Y12281468D01*
X2651516Y12283978D01*
X2655809Y12300000D01*
X2651516Y12316022D01*
X2651516Y12328685D01*
X2650500Y12336402D01*
X2650500Y15034025D01*
X8795923Y15034025D01*
X8824025Y14936020D01*
X8828543Y14924608D01*
X8912546Y14761156D01*
X8919196Y14750838D01*
X9033350Y14606811D01*
X9041873Y14597985D01*
X9181833Y14478871D01*
X9191905Y14471870D01*
X9352334Y14382210D01*
X9363574Y14377299D01*
X9488769Y14336621D01*
X9502867Y14336218D01*
X9506000Y14342590D01*
X9506000Y14350742D01*
X10014000Y14350742D01*
X10017973Y14337211D01*
X10026188Y14336030D01*
X10117430Y14361505D01*
X10128881Y14365947D01*
X10292919Y14448807D01*
X10303276Y14455380D01*
X10448100Y14568530D01*
X10456986Y14576991D01*
X10577070Y14716110D01*
X10584144Y14726138D01*
X10674919Y14885932D01*
X10679913Y14897148D01*
X10723712Y15028811D01*
X10724213Y15042903D01*
X10718024Y15046000D01*
X10032115Y15046000D01*
X10016876Y15041525D01*
X10015671Y15040135D01*
X10014000Y15032452D01*
X10014000Y14350742D01*
X9506000Y14350742D01*
X9506000Y15027885D01*
X9501525Y15043124D01*
X9500135Y15044329D01*
X9492452Y15046000D01*
X8810604Y15046000D01*
X8797073Y15042027D01*
X8795923Y15034025D01*
X2650500Y15034025D01*
X2650500Y15314037D01*
X11294757Y15314037D01*
X11311175Y15118517D01*
X11365258Y14929909D01*
X11368076Y14924426D01*
X11452123Y14760887D01*
X11452126Y14760883D01*
X11454944Y14755399D01*
X11576818Y14601631D01*
X11726238Y14474465D01*
X11731616Y14471459D01*
X11731618Y14471458D01*
X11767932Y14451163D01*
X11897513Y14378743D01*
X12084118Y14318111D01*
X12278946Y14294879D01*
X12285081Y14295351D01*
X12285083Y14295351D01*
X12468434Y14309459D01*
X12468438Y14309460D01*
X12474576Y14309932D01*
X12663556Y14362697D01*
X12838689Y14451163D01*
X12868515Y14474465D01*
X12988453Y14568171D01*
X12993303Y14571960D01*
X13023084Y14606461D01*
X13117485Y14715827D01*
X13117485Y14715828D01*
X13121509Y14720489D01*
X13218425Y14891091D01*
X13280358Y15077268D01*
X13304949Y15271929D01*
X13305341Y15300000D01*
X13286194Y15495272D01*
X13284413Y15501171D01*
X13284412Y15501176D01*
X13231265Y15677207D01*
X13229484Y15683106D01*
X13137370Y15856347D01*
X13013361Y16008398D01*
X12862180Y16133465D01*
X12689585Y16226787D01*
X12573000Y16262876D01*
X12508039Y16282985D01*
X12508036Y16282986D01*
X12502152Y16284807D01*
X12496027Y16285451D01*
X12496026Y16285451D01*
X12313147Y16304673D01*
X12313146Y16304673D01*
X12307019Y16305317D01*
X12184733Y16294188D01*
X12117759Y16288093D01*
X12117758Y16288093D01*
X12111618Y16287534D01*
X12105704Y16285793D01*
X12105702Y16285793D01*
X12028538Y16263082D01*
X11923393Y16232136D01*
X11917928Y16229279D01*
X11754972Y16144088D01*
X11754968Y16144085D01*
X11749512Y16141233D01*
X11744712Y16137373D01*
X11744711Y16137373D01*
X11734446Y16129120D01*
X11596600Y16018289D01*
X11470480Y15867984D01*
X11467516Y15862592D01*
X11467513Y15862588D01*
X11388813Y15719433D01*
X11375956Y15696046D01*
X11374095Y15690179D01*
X11374094Y15690177D01*
X11371851Y15683106D01*
X11316628Y15509022D01*
X11294757Y15314037D01*
X2650500Y15314037D01*
X2650500Y15557168D01*
X8796594Y15557168D01*
X8803153Y15554000D01*
X9487885Y15554000D01*
X9503124Y15558475D01*
X9504329Y15559865D01*
X9506000Y15567548D01*
X9506000Y15572115D01*
X10014000Y15572115D01*
X10018475Y15556876D01*
X10019865Y15555671D01*
X10027548Y15554000D01*
X10709826Y15554000D01*
X10723357Y15557973D01*
X10724449Y15565567D01*
X10690801Y15677015D01*
X10686126Y15688356D01*
X10599846Y15850627D01*
X10593059Y15860843D01*
X10476899Y16003269D01*
X10468255Y16011973D01*
X10326649Y16129120D01*
X10316478Y16135980D01*
X10154809Y16223394D01*
X10143504Y16228146D01*
X10031308Y16262876D01*
X10017205Y16263082D01*
X10014000Y16256327D01*
X10014000Y15572115D01*
X9506000Y15572115D01*
X9506000Y16249586D01*
X9502027Y16263117D01*
X9494232Y16264237D01*
X9389496Y16233411D01*
X9378119Y16228814D01*
X9215247Y16143667D01*
X9204986Y16136953D01*
X9061751Y16021789D01*
X9052992Y16013211D01*
X8934853Y15872419D01*
X8927927Y15862305D01*
X8839383Y15701243D01*
X8834555Y15689979D01*
X8796898Y15571269D01*
X8796594Y15557168D01*
X2650500Y15557168D01*
X2650500Y18763598D01*
X2651516Y18771315D01*
X2651516Y18783978D01*
X2655809Y18800000D01*
X2652170Y18813583D01*
X2652308Y18816043D01*
X2665195Y18930420D01*
X2671474Y18957928D01*
X2710132Y19068407D01*
X2722369Y19093820D01*
X2784651Y19192943D01*
X2802241Y19214998D01*
X2885002Y19297759D01*
X2907057Y19315349D01*
X3006180Y19377631D01*
X3031593Y19389868D01*
X3142072Y19428526D01*
X3169580Y19434805D01*
X3283957Y19447692D01*
X3286417Y19447830D01*
X3300000Y19444191D01*
X3316022Y19448484D01*
X3328685Y19448484D01*
X3336402Y19449500D01*
X9353215Y19449500D01*
X9421336Y19429498D01*
G37*
%TD.AperFunction*%
%TD*%
M02*
