%TF.GenerationSoftware,KiCad,Pcbnew,6.0.7+dfsg-1~bpo11+1*%
%TF.CreationDate,2022-09-24T09:45:49+00:00*%
%TF.ProjectId,0101-PUSH,30313031-2d50-4555-9348-2e6b69636164,V1.1*%
%TF.SameCoordinates,Original*%
%TF.FileFunction,Legend,Top*%
%TF.FilePolarity,Positive*%
%FSLAX46Y46*%
G04 Gerber Fmt 4.6, Leading zero omitted, Abs format (unit mm)*
G04 Created by KiCad (PCBNEW 6.0.7+dfsg-1~bpo11+1) date 2022-09-24 09:45:49*
%MOMM*%
%LPD*%
G01*
G04 APERTURE LIST*
%ADD10C,0.150000*%
%ADD11C,0.120000*%
G04 APERTURE END LIST*
D10*
X1135595Y16347620D02*
X1135595Y17347620D01*
X1516547Y17347620D01*
X1611785Y17300000D01*
X1659404Y17252381D01*
X1707023Y17157143D01*
X1707023Y17014286D01*
X1659404Y16919048D01*
X1611785Y16871429D01*
X1516547Y16823810D01*
X1135595Y16823810D01*
X2135595Y17347620D02*
X2135595Y16538096D01*
X2183214Y16442858D01*
X2230833Y16395239D01*
X2326071Y16347620D01*
X2516547Y16347620D01*
X2611785Y16395239D01*
X2659404Y16442858D01*
X2707023Y16538096D01*
X2707023Y17347620D01*
X3135595Y16395239D02*
X3278452Y16347620D01*
X3516547Y16347620D01*
X3611785Y16395239D01*
X3659404Y16442858D01*
X3707023Y16538096D01*
X3707023Y16633334D01*
X3659404Y16728572D01*
X3611785Y16776191D01*
X3516547Y16823810D01*
X3326071Y16871429D01*
X3230833Y16919048D01*
X3183214Y16966667D01*
X3135595Y17061905D01*
X3135595Y17157143D01*
X3183214Y17252381D01*
X3230833Y17300000D01*
X3326071Y17347620D01*
X3564166Y17347620D01*
X3707023Y17300000D01*
X4135595Y16347620D02*
X4135595Y17347620D01*
X4135595Y16871429D02*
X4707023Y16871429D01*
X4707023Y16347620D02*
X4707023Y17347620D01*
D11*
%TO.C,C1*%
X18660000Y4772164D02*
X18660000Y4987836D01*
X17940000Y4772164D02*
X17940000Y4987836D01*
%TO.C,D1*%
X3065000Y3315000D02*
X4535000Y3315000D01*
X4535000Y3315000D02*
X4535000Y5600000D01*
X3065000Y5600000D02*
X3065000Y3315000D01*
%TO.C,J1*%
X8530000Y14470000D02*
X13670000Y14470000D01*
X13670000Y14470000D02*
X13670000Y17130000D01*
X7260000Y14470000D02*
X5930000Y14470000D01*
X8530000Y17130000D02*
X13670000Y17130000D01*
X8530000Y14470000D02*
X8530000Y17130000D01*
X5930000Y14470000D02*
X5930000Y15800000D01*
%TO.C,R1*%
X14777500Y5462258D02*
X14777500Y4987742D01*
X15822500Y5462258D02*
X15822500Y4987742D01*
%TO.C,R2*%
X16277500Y4987742D02*
X16277500Y5462258D01*
X17322500Y4987742D02*
X17322500Y5462258D01*
%TO.C,R3*%
X15822500Y9137742D02*
X15822500Y9612258D01*
X14777500Y9137742D02*
X14777500Y9612258D01*
%TO.C,R4*%
X17322500Y9612258D02*
X17322500Y9137742D01*
X16277500Y9612258D02*
X16277500Y9137742D01*
%TO.C,R5*%
X4156359Y7680000D02*
X4463641Y7680000D01*
X4156359Y6920000D02*
X4463641Y6920000D01*
%TO.C,SW1*%
X5550000Y3050000D02*
X12300000Y3050000D01*
X14050000Y4800000D02*
X14050000Y11550000D01*
X8300000Y8300000D02*
X8300000Y6300000D01*
X5550000Y11550000D02*
X5550000Y3050000D01*
X11300000Y6300000D02*
X11300000Y8300000D01*
X14050000Y11550000D02*
X5550000Y11550000D01*
X11300000Y8300000D02*
X8300000Y8300000D01*
X8300000Y6300000D02*
X11300000Y6300000D01*
%TO.C,kibuzzard-6324301C*%
G36*
X11919868Y13583369D02*
G01*
X11919868Y13022029D01*
X11895579Y13018655D01*
X11871291Y13017981D01*
X11780883Y13041595D01*
X11725558Y13104341D01*
X11697221Y13194749D01*
X11689125Y13300000D01*
X11691655Y13359541D01*
X11699245Y13414022D01*
X11732980Y13503756D01*
X11795051Y13563128D01*
X11890182Y13584718D01*
X11905025Y13584718D01*
X11919868Y13583369D01*
G37*
G36*
X13654372Y14013516D02*
G01*
X13723971Y14003192D01*
X13792222Y13986096D01*
X13858469Y13962392D01*
X13922074Y13932309D01*
X13982423Y13896137D01*
X14038937Y13854224D01*
X14091070Y13806973D01*
X14138321Y13754840D01*
X14180234Y13698326D01*
X14216407Y13637976D01*
X14246489Y13574372D01*
X14270193Y13508125D01*
X14287289Y13439874D01*
X14297613Y13370275D01*
X14301065Y13300000D01*
X14297613Y13229725D01*
X14287289Y13160126D01*
X14270193Y13091875D01*
X14246489Y13025628D01*
X14216407Y12962024D01*
X14180234Y12901674D01*
X14138321Y12845160D01*
X14091070Y12793027D01*
X14038937Y12745776D01*
X13982423Y12703863D01*
X13922074Y12667691D01*
X13858469Y12637608D01*
X13792222Y12613904D01*
X13723971Y12596808D01*
X13654372Y12586484D01*
X13584097Y12583032D01*
X6015903Y12583032D01*
X5945628Y12586484D01*
X5876029Y12596808D01*
X5807778Y12613904D01*
X5741531Y12637608D01*
X5677926Y12667691D01*
X5617577Y12703863D01*
X5561063Y12745776D01*
X5508930Y12793027D01*
X5461679Y12845160D01*
X5419766Y12901674D01*
X5383593Y12962024D01*
X5353511Y13025628D01*
X5329807Y13091875D01*
X5312711Y13160126D01*
X5302387Y13229725D01*
X5298935Y13300000D01*
X5302387Y13370275D01*
X5312711Y13439874D01*
X5329807Y13508125D01*
X5353511Y13574372D01*
X5383593Y13637976D01*
X5407478Y13677825D01*
X6128351Y13677825D01*
X6170181Y13546936D01*
X6238325Y13576622D01*
X6345600Y13591465D01*
X6441912Y13572405D01*
X6506850Y13515225D01*
X6534213Y13456977D01*
X6550630Y13383886D01*
X6556103Y13295952D01*
X6551548Y13220387D01*
X6537886Y13158316D01*
X6490658Y13069932D01*
X6424538Y13022703D01*
X6348299Y13008535D01*
X6247770Y13022703D01*
X6172880Y13057112D01*
X6129700Y12924874D01*
X6157362Y12908681D01*
X6202566Y12888441D01*
X6265312Y12871573D01*
X6345600Y12864152D01*
X6424707Y12871405D01*
X6497405Y12893163D01*
X6562175Y12928922D01*
X6617499Y12978174D01*
X6662534Y13040414D01*
X6696438Y13115136D01*
X6717690Y13201833D01*
X6724774Y13300000D01*
X6718955Y13398589D01*
X6701498Y13485202D01*
X6672402Y13559839D01*
X6631668Y13622501D01*
X6568967Y13677825D01*
X6803038Y13677825D01*
X6844869Y13546936D01*
X6913012Y13576622D01*
X7020288Y13591465D01*
X7116599Y13572405D01*
X7181538Y13515225D01*
X7208900Y13456977D01*
X7225318Y13383886D01*
X7230790Y13295952D01*
X7226236Y13220387D01*
X7212573Y13158316D01*
X7165345Y13069932D01*
X7099226Y13022703D01*
X7022986Y13008535D01*
X6922458Y13022703D01*
X6847568Y13057112D01*
X6804388Y12924874D01*
X6832050Y12908681D01*
X6877254Y12888441D01*
X6940000Y12871573D01*
X7020288Y12864152D01*
X7099395Y12871405D01*
X7138279Y12883043D01*
X7452088Y12883043D01*
X7626157Y12883043D01*
X7638301Y12953211D01*
X7653144Y13034173D01*
X7670012Y13121714D01*
X7688228Y13211616D01*
X7707794Y13302024D01*
X7728709Y13391083D01*
X7750299Y13474575D01*
X7771889Y13548285D01*
X7793648Y13473563D01*
X7815744Y13389733D01*
X7837334Y13300675D01*
X7857575Y13210267D01*
X7876297Y13120533D01*
X7893333Y13033498D01*
X7907502Y12953042D01*
X7917622Y12883043D01*
X8093041Y12883043D01*
X8801463Y12883043D01*
X8972833Y12883043D01*
X9005893Y12980198D01*
X9024447Y13033836D01*
X9043675Y13086799D01*
X9082807Y13186652D01*
X9117216Y13264916D01*
X9157023Y13177038D01*
X9195480Y13080727D01*
X9231576Y12981041D01*
X9264298Y12883043D01*
X9442416Y12883043D01*
X9407707Y12973376D01*
X9371948Y13060861D01*
X9335140Y13145497D01*
X9295784Y13229383D01*
X9252379Y13314618D01*
X9204926Y13401203D01*
X9204926Y13580670D01*
X9513933Y13580670D01*
X9883661Y13580670D01*
X9883661Y13345879D01*
X9588148Y13345879D01*
X9588148Y13208242D01*
X9883661Y13208242D01*
X9883661Y13020679D01*
X9543619Y13020679D01*
X9543619Y12883043D01*
X10049634Y12883043D01*
X10049634Y13718306D01*
X10149488Y13718306D01*
X10171415Y13658090D01*
X10199415Y13596188D01*
X10232306Y13534117D01*
X10268908Y13473395D01*
X10308546Y13415203D01*
X10350545Y13360722D01*
X10393388Y13311132D01*
X10435556Y13267615D01*
X10394568Y13218025D01*
X10355268Y13166412D01*
X10317991Y13114292D01*
X10283076Y13063185D01*
X10251197Y13013595D01*
X10223029Y12966030D01*
X10177825Y12883043D01*
X10365388Y12883043D01*
X10405869Y12964006D01*
X10459170Y13054414D01*
X10520566Y13146171D01*
X10582638Y13229832D01*
X10582638Y12883043D01*
X10748611Y12883043D01*
X10748611Y13300000D01*
X11520453Y13300000D01*
X11527031Y13194917D01*
X11546766Y13106365D01*
X11578308Y13033161D01*
X11620307Y12974126D01*
X11672764Y12929091D01*
X11735678Y12897886D01*
X11807364Y12879670D01*
X11886134Y12873597D01*
X11979241Y12877646D01*
X12014772Y12883043D01*
X12220779Y12883043D01*
X12370559Y12883043D01*
X12370559Y13397155D01*
X12394342Y13344529D01*
X12422510Y13283807D01*
X12454221Y13218025D01*
X12488630Y13150219D01*
X12524894Y13081233D01*
X12562171Y13011908D01*
X12599953Y12944946D01*
X12637736Y12883043D01*
X12771324Y12883043D01*
X12771324Y12924874D01*
X12881973Y12924874D01*
X12909635Y12908681D01*
X12956188Y12888441D01*
X13022982Y12871573D01*
X13110017Y12864152D01*
X13183220Y12871067D01*
X13251701Y12891814D01*
X13313435Y12926392D01*
X13366398Y12974801D01*
X13409915Y13036703D01*
X13443313Y13111762D01*
X13464565Y13199640D01*
X13471649Y13300000D01*
X13465577Y13401372D01*
X13447361Y13489587D01*
X13418012Y13564478D01*
X13378543Y13625874D01*
X13329459Y13673777D01*
X13271267Y13708186D01*
X13204642Y13728933D01*
X13130258Y13735848D01*
X13047777Y13732475D01*
X12978453Y13722354D01*
X12886021Y13698066D01*
X12886021Y13281109D01*
X13051994Y13281109D01*
X13051994Y13586067D01*
X13084379Y13590116D01*
X13116764Y13591465D01*
X13197389Y13573754D01*
X13255749Y13520623D01*
X13281987Y13464624D01*
X13297730Y13391083D01*
X13302978Y13300000D01*
X13300110Y13238097D01*
X13291508Y13181930D01*
X13253725Y13090172D01*
X13186931Y13030125D01*
X13087078Y13008535D01*
X12998019Y13023378D01*
X12925153Y13057112D01*
X12881973Y12924874D01*
X12771324Y12924874D01*
X12771324Y13718306D01*
X12621543Y13718306D01*
X12621543Y13163713D01*
X12571391Y13256295D01*
X12523489Y13348727D01*
X12477835Y13441010D01*
X12434430Y13533292D01*
X12393274Y13625724D01*
X12354367Y13718306D01*
X12220779Y13718306D01*
X12220779Y12883043D01*
X12014772Y12883043D01*
X12085841Y12893838D01*
X12085841Y13708861D01*
X11994758Y13724378D01*
X11907724Y13729101D01*
X11826255Y13723198D01*
X11751871Y13705487D01*
X11685920Y13674958D01*
X11629753Y13630597D01*
X11584042Y13571730D01*
X11549465Y13497683D01*
X11527706Y13407444D01*
X11520453Y13300000D01*
X10748611Y13300000D01*
X10748611Y13718306D01*
X10582638Y13718306D01*
X10582638Y13336433D01*
X10511795Y13412673D01*
X10475531Y13459564D01*
X10440953Y13509828D01*
X10408737Y13562453D01*
X10379557Y13616428D01*
X10337051Y13718306D01*
X10149488Y13718306D01*
X10049634Y13718306D01*
X9513933Y13718306D01*
X9513933Y13580670D01*
X9204926Y13580670D01*
X9204926Y13718306D01*
X9037603Y13718306D01*
X9037603Y13399854D01*
X9001170Y13334578D01*
X8967436Y13270988D01*
X8936063Y13208074D01*
X8906714Y13144822D01*
X8879052Y13081064D01*
X8852739Y13016631D01*
X8827101Y12950849D01*
X8801463Y12883043D01*
X8093041Y12883043D01*
X8077523Y12958608D01*
X8055258Y13053064D01*
X8037416Y13123757D01*
X8018075Y13197298D01*
X7997235Y13273687D01*
X7975195Y13351576D01*
X7952256Y13429615D01*
X7928417Y13507804D01*
X7892996Y13619127D01*
X7859599Y13718306D01*
X7688228Y13718306D01*
X7662440Y13646415D01*
X7637252Y13572874D01*
X7612663Y13497683D01*
X7589049Y13422118D01*
X7566784Y13347453D01*
X7545869Y13273687D01*
X7517195Y13166243D01*
X7491894Y13063859D01*
X7470135Y12968728D01*
X7452088Y12883043D01*
X7138279Y12883043D01*
X7172092Y12893163D01*
X7236862Y12928922D01*
X7292187Y12978174D01*
X7337222Y13040414D01*
X7371125Y13115136D01*
X7392378Y13201833D01*
X7399462Y13300000D01*
X7393643Y13398589D01*
X7376185Y13485202D01*
X7347089Y13559839D01*
X7306355Y13622501D01*
X7234988Y13685471D01*
X7145030Y13723254D01*
X7036480Y13735848D01*
X6962770Y13731294D01*
X6898169Y13717632D01*
X6803038Y13677825D01*
X6568967Y13677825D01*
X6560301Y13685471D01*
X6470342Y13723254D01*
X6361793Y13735848D01*
X6288083Y13731294D01*
X6223482Y13717632D01*
X6128351Y13677825D01*
X5407478Y13677825D01*
X5419766Y13698326D01*
X5461679Y13754840D01*
X5508930Y13806973D01*
X5561063Y13854224D01*
X5617577Y13896137D01*
X5677926Y13932309D01*
X5741531Y13962392D01*
X5807778Y13986096D01*
X5876029Y14003192D01*
X5945628Y14013516D01*
X6015903Y14016968D01*
X13584097Y14016968D01*
X13654372Y14013516D01*
G37*
%TO.C,kibuzzard-631DDDB8*%
G36*
X4030806Y17989961D02*
G01*
X3967583Y18009785D01*
X3920792Y18069257D01*
X3899361Y18130296D01*
X3886502Y18207687D01*
X3882216Y18301429D01*
X3882875Y18315716D01*
X3952224Y18315716D01*
X3973656Y18249279D01*
X4032234Y18221419D01*
X4088670Y18249279D01*
X4110816Y18315716D01*
X4088670Y18382867D01*
X4032234Y18411442D01*
X3973656Y18382867D01*
X3952224Y18315716D01*
X3882875Y18315716D01*
X3886502Y18394377D01*
X3899361Y18471291D01*
X3920792Y18532172D01*
X3967583Y18591644D01*
X4030806Y18611467D01*
X4094921Y18591644D01*
X4141534Y18532172D01*
X4162568Y18471291D01*
X4175189Y18394377D01*
X4179396Y18301429D01*
X4175189Y18207687D01*
X4162568Y18130296D01*
X4141534Y18069257D01*
X4094921Y18009785D01*
X4032234Y17990403D01*
X4030806Y17989961D01*
G37*
G36*
X2602056Y17989961D02*
G01*
X2538833Y18009785D01*
X2492042Y18069257D01*
X2470611Y18130296D01*
X2457752Y18207687D01*
X2453466Y18301429D01*
X2454125Y18315716D01*
X2523474Y18315716D01*
X2544906Y18249279D01*
X2603484Y18221419D01*
X2659920Y18249279D01*
X2682066Y18315716D01*
X2659920Y18382867D01*
X2603484Y18411442D01*
X2544906Y18382867D01*
X2523474Y18315716D01*
X2454125Y18315716D01*
X2457752Y18394377D01*
X2470611Y18471291D01*
X2492042Y18532172D01*
X2538833Y18591644D01*
X2602056Y18611467D01*
X2666171Y18591644D01*
X2712784Y18532172D01*
X2733818Y18471291D01*
X2746439Y18394377D01*
X2750646Y18301429D01*
X2746439Y18207687D01*
X2733818Y18130296D01*
X2712784Y18069257D01*
X2666171Y18009785D01*
X2603484Y17990403D01*
X2602056Y17989961D01*
G37*
G36*
X1238003Y17663002D02*
G01*
X1175869Y17672219D01*
X1114937Y17687482D01*
X1055794Y17708643D01*
X999011Y17735500D01*
X945133Y17767793D01*
X894680Y17805211D01*
X848137Y17847395D01*
X805954Y17893938D01*
X768535Y17944391D01*
X736242Y17998268D01*
X709385Y18055052D01*
X702002Y18075686D01*
X1556211Y18075686D01*
X1641936Y18075686D01*
X1600502Y17857087D01*
X1746234Y17857087D01*
X1786239Y18075686D01*
X1900539Y18075686D01*
X1859106Y17857087D01*
X2004838Y17857087D01*
X2046272Y18075686D01*
X2220579Y18075686D01*
X2220579Y18221419D01*
X2073418Y18221419D01*
X2088693Y18301429D01*
X2294874Y18301429D01*
X2299786Y18191772D01*
X2314520Y18097117D01*
X2339076Y18017465D01*
X2373456Y17952814D01*
X2433781Y17889314D01*
X2509981Y17851214D01*
X2602056Y17838514D01*
X2694131Y17851214D01*
X2770331Y17889314D01*
X2830656Y17952814D01*
X2865035Y18017465D01*
X2889592Y18097117D01*
X2904326Y18191772D01*
X2909237Y18301429D01*
X2904326Y18410416D01*
X2889592Y18504490D01*
X2873248Y18557175D01*
X3027823Y18557175D01*
X3084973Y18411442D01*
X3172127Y18446447D01*
X3263567Y18497167D01*
X3263567Y18002820D01*
X3077829Y18002820D01*
X3077829Y17857087D01*
X3615039Y17857087D01*
X3615039Y18002820D01*
X3439303Y18002820D01*
X3439303Y18301429D01*
X3723624Y18301429D01*
X3728536Y18191772D01*
X3743270Y18097117D01*
X3767826Y18017465D01*
X3802206Y17952814D01*
X3862531Y17889314D01*
X3938731Y17851214D01*
X4030806Y17838514D01*
X4122881Y17851214D01*
X4199081Y17889314D01*
X4259406Y17952814D01*
X4293785Y18017465D01*
X4318342Y18097117D01*
X4333076Y18191772D01*
X4337987Y18301429D01*
X4333076Y18410416D01*
X4318342Y18504490D01*
X4301998Y18557175D01*
X4456573Y18557175D01*
X4513723Y18411442D01*
X4600877Y18446447D01*
X4692317Y18497167D01*
X4692317Y18002820D01*
X4506579Y18002820D01*
X4506579Y17857087D01*
X5043789Y17857087D01*
X5043789Y18002820D01*
X4868053Y18002820D01*
X4868053Y18741484D01*
X4748038Y18741484D01*
X4686602Y18685762D01*
X4610878Y18634328D01*
X4530868Y18590036D01*
X4456573Y18557175D01*
X4301998Y18557175D01*
X4293785Y18583652D01*
X4259406Y18647901D01*
X4199081Y18711004D01*
X4122881Y18748866D01*
X4030806Y18761486D01*
X3940159Y18748786D01*
X3864436Y18710686D01*
X3803634Y18647186D01*
X3768630Y18582714D01*
X3743627Y18503597D01*
X3728625Y18409835D01*
X3723624Y18301429D01*
X3439303Y18301429D01*
X3439303Y18741484D01*
X3319288Y18741484D01*
X3257852Y18685762D01*
X3182128Y18634328D01*
X3102118Y18590036D01*
X3027823Y18557175D01*
X2873248Y18557175D01*
X2865035Y18583652D01*
X2830656Y18647901D01*
X2770331Y18711004D01*
X2694131Y18748866D01*
X2602056Y18761486D01*
X2511409Y18748786D01*
X2435686Y18710686D01*
X2374884Y18647186D01*
X2339880Y18582714D01*
X2314877Y18503597D01*
X2299875Y18409835D01*
X2294874Y18301429D01*
X2088693Y18301429D01*
X2103422Y18378581D01*
X2220579Y18378581D01*
X2220579Y18524314D01*
X2131997Y18524314D01*
X2173431Y18741484D01*
X2027698Y18741484D01*
X1986264Y18524314D01*
X1871964Y18524314D01*
X1914827Y18741484D01*
X1769094Y18741484D01*
X1727661Y18524314D01*
X1556211Y18524314D01*
X1556211Y18378581D01*
X1699086Y18378581D01*
X1669082Y18221419D01*
X1556211Y18221419D01*
X1556211Y18075686D01*
X702002Y18075686D01*
X688224Y18114195D01*
X672961Y18175127D01*
X663744Y18237261D01*
X660662Y18300000D01*
X663744Y18362739D01*
X672961Y18424873D01*
X688224Y18485805D01*
X709385Y18544948D01*
X736242Y18601732D01*
X768535Y18655609D01*
X805954Y18706062D01*
X848137Y18752605D01*
X894680Y18794789D01*
X945133Y18832207D01*
X999011Y18864500D01*
X1055794Y18891357D01*
X1114937Y18912518D01*
X1175869Y18927781D01*
X1238003Y18936998D01*
X1300742Y18940080D01*
X5299258Y18940080D01*
X5361997Y18936998D01*
X5424131Y18927781D01*
X5485063Y18912518D01*
X5544206Y18891357D01*
X5600989Y18864500D01*
X5654867Y18832207D01*
X5705320Y18794789D01*
X5751863Y18752605D01*
X5794046Y18706062D01*
X5831465Y18655609D01*
X5863758Y18601732D01*
X5890615Y18544948D01*
X5911776Y18485805D01*
X5927039Y18424873D01*
X5936256Y18362739D01*
X5939338Y18300000D01*
X5936256Y18237261D01*
X5927039Y18175127D01*
X5911776Y18114195D01*
X5890615Y18055052D01*
X5863758Y17998268D01*
X5831465Y17944391D01*
X5794046Y17893938D01*
X5751863Y17847395D01*
X5705320Y17805211D01*
X5654867Y17767793D01*
X5600989Y17735500D01*
X5544206Y17708643D01*
X5485063Y17687482D01*
X5424131Y17672219D01*
X5361997Y17663002D01*
X5299258Y17659920D01*
X1300742Y17659920D01*
X1238003Y17663002D01*
G37*
G36*
X1929114Y18221419D02*
G01*
X1814814Y18221419D01*
X1844818Y18378581D01*
X1957689Y18378581D01*
X1929114Y18221419D01*
G37*
%TO.C,kibuzzard-63243468*%
G36*
X16800000Y6678219D02*
G01*
X16317162Y7000111D01*
X16317162Y7083862D01*
X16456068Y7083862D01*
X17143932Y7083862D01*
X17143932Y7516138D01*
X17030584Y7516138D01*
X17030584Y7221657D01*
X16456068Y7221657D01*
X16456068Y7083862D01*
X16317162Y7083862D01*
X16317162Y7599889D01*
X16800000Y7921781D01*
X17282838Y7599889D01*
X17282838Y7000111D01*
X16800000Y6678219D01*
G37*
%TO.C,kibuzzard-63243779*%
G36*
X17399499Y2852351D02*
G01*
X14700501Y2852351D01*
X14700501Y3527251D01*
X14990979Y3527251D01*
X15285460Y3527251D01*
X15285460Y2952734D01*
X15423255Y2952734D01*
X15423255Y3527251D01*
X15546604Y3527251D01*
X15841085Y3527251D01*
X15841085Y2952734D01*
X15978880Y2952734D01*
X16101118Y2952734D01*
X16237801Y2952734D01*
X16237801Y3381677D01*
X16242246Y3454464D01*
X16257804Y3502248D01*
X16287808Y3528362D01*
X16335591Y3536141D01*
X16383375Y3528362D01*
X16412823Y3502803D01*
X16427825Y3455575D01*
X16432270Y3382788D01*
X16432270Y2952734D01*
X16570065Y2952734D01*
X16570065Y3174984D01*
X16644519Y3174984D01*
X16652544Y3101086D01*
X16676622Y3042375D01*
X16716750Y2998851D01*
X16771448Y2968909D01*
X16839234Y2950944D01*
X16920109Y2944956D01*
X16963448Y2946067D01*
X17013454Y2948845D01*
X17064016Y2953846D01*
X17109021Y2961624D01*
X17109021Y3640598D01*
X16972338Y3640598D01*
X16972338Y3408347D01*
X16923443Y3408347D01*
X16841272Y3402235D01*
X16772559Y3383899D01*
X16717306Y3353340D01*
X16676868Y3309075D01*
X16652606Y3249623D01*
X16644519Y3174984D01*
X16570065Y3174984D01*
X16570065Y3391678D01*
X16567287Y3448908D01*
X16558953Y3500581D01*
X16543951Y3545864D01*
X16521170Y3583924D01*
X16449494Y3636709D01*
X16399071Y3650460D01*
X16337814Y3655044D01*
X16275584Y3650460D01*
X16224466Y3636709D01*
X16183350Y3614345D01*
X16151124Y3583924D01*
X16127510Y3545864D01*
X16112230Y3500581D01*
X16103896Y3448908D01*
X16101118Y3391678D01*
X16101118Y2952734D01*
X15978880Y2952734D01*
X15978880Y3640598D01*
X15546604Y3640598D01*
X15546604Y3527251D01*
X15423255Y3527251D01*
X15423255Y3640598D01*
X14990979Y3640598D01*
X14990979Y3527251D01*
X14700501Y3527251D01*
X14700501Y3747649D01*
X17399499Y3747649D01*
X17399499Y2852351D01*
G37*
G36*
X16972338Y3067193D02*
G01*
X16938444Y3064415D01*
X16904551Y3063859D01*
X16855517Y3070110D01*
X16817318Y3088863D01*
X16792732Y3122617D01*
X16784536Y3173873D01*
X16792871Y3227908D01*
X16817874Y3263329D01*
X16859268Y3282915D01*
X16916775Y3289443D01*
X16972338Y3289443D01*
X16972338Y3067193D01*
G37*
%TO.C,kibuzzard-632ECE43*%
G36*
X1170736Y813404D02*
G01*
X1123272Y820445D01*
X1076726Y832104D01*
X1031548Y848269D01*
X988172Y868785D01*
X947015Y893453D01*
X908475Y922037D01*
X872921Y954260D01*
X840698Y989813D01*
X812114Y1028354D01*
X787446Y1069511D01*
X766930Y1112887D01*
X750765Y1158065D01*
X739106Y1204611D01*
X732066Y1252075D01*
X729711Y1300000D01*
X732066Y1347925D01*
X739106Y1395389D01*
X750765Y1441935D01*
X766930Y1487113D01*
X787446Y1530489D01*
X812114Y1571646D01*
X840698Y1610187D01*
X872921Y1645740D01*
X877670Y1650044D01*
X1218754Y1650044D01*
X1231533Y1587814D01*
X1249869Y1510026D01*
X1264562Y1451809D01*
X1280490Y1391246D01*
X1297653Y1328337D01*
X1315803Y1264193D01*
X1334694Y1199926D01*
X1354326Y1135535D01*
X1383497Y1043857D01*
X1411000Y962180D01*
X1552129Y962180D01*
X1573366Y1021385D01*
X1594109Y1081948D01*
X1614359Y1143869D01*
X1633806Y1206099D01*
X1652141Y1267589D01*
X1669366Y1328337D01*
X1692980Y1416820D01*
X1713816Y1501136D01*
X1715087Y1506693D01*
X1813273Y1506693D01*
X1857723Y1393345D01*
X1925509Y1420571D01*
X1996629Y1460020D01*
X1996629Y1075528D01*
X1852166Y1075528D01*
X1852166Y962180D01*
X2269996Y962180D01*
X2269996Y1049969D01*
X2494469Y1049969D01*
X2502803Y1007186D01*
X2525028Y976071D01*
X2556699Y956624D01*
X2594481Y949956D01*
X2663379Y975515D01*
X2693383Y1049969D01*
X2663379Y1122200D01*
X2594481Y1147759D01*
X2556699Y1141091D01*
X2525028Y1122200D01*
X2502803Y1091641D01*
X2494469Y1049969D01*
X2269996Y1049969D01*
X2269996Y1075528D01*
X2133313Y1075528D01*
X2133313Y1506693D01*
X2924523Y1506693D01*
X2968973Y1393345D01*
X3036759Y1420571D01*
X3107879Y1460020D01*
X3107879Y1075528D01*
X2963416Y1075528D01*
X2963416Y962180D01*
X3381246Y962180D01*
X3381246Y1075528D01*
X3244563Y1075528D01*
X3244563Y1650044D01*
X3151218Y1650044D01*
X3103434Y1606705D01*
X3044538Y1566700D01*
X2982308Y1532251D01*
X2924523Y1506693D01*
X2133313Y1506693D01*
X2133313Y1650044D01*
X2039968Y1650044D01*
X1992184Y1606705D01*
X1933288Y1566700D01*
X1871058Y1532251D01*
X1813273Y1506693D01*
X1715087Y1506693D01*
X1731735Y1579479D01*
X1746598Y1650044D01*
X1603246Y1650044D01*
X1593245Y1592259D01*
X1581021Y1525584D01*
X1567131Y1453491D01*
X1552129Y1379454D01*
X1536016Y1305001D01*
X1518791Y1231658D01*
X1501011Y1162900D01*
X1483231Y1102198D01*
X1465312Y1163733D01*
X1447116Y1232769D01*
X1429336Y1306112D01*
X1412667Y1380566D01*
X1397248Y1454464D01*
X1383219Y1526139D01*
X1371551Y1592398D01*
X1363216Y1650044D01*
X1218754Y1650044D01*
X877670Y1650044D01*
X908475Y1677963D01*
X947015Y1706547D01*
X988172Y1731215D01*
X1031548Y1751731D01*
X1076726Y1767896D01*
X1123272Y1779555D01*
X1170736Y1786596D01*
X1218661Y1788950D01*
X3381339Y1788950D01*
X3429264Y1786596D01*
X3476728Y1779555D01*
X3523274Y1767896D01*
X3568452Y1751731D01*
X3611828Y1731215D01*
X3652985Y1706547D01*
X3691525Y1677963D01*
X3727079Y1645740D01*
X3759302Y1610187D01*
X3787886Y1571646D01*
X3812554Y1530489D01*
X3833070Y1487113D01*
X3849235Y1441935D01*
X3860894Y1395389D01*
X3867934Y1347925D01*
X3870289Y1300000D01*
X3867934Y1252075D01*
X3860894Y1204611D01*
X3849235Y1158065D01*
X3833070Y1112887D01*
X3812554Y1069511D01*
X3787886Y1028354D01*
X3759302Y989813D01*
X3727079Y954260D01*
X3691525Y922037D01*
X3652985Y893453D01*
X3611828Y868785D01*
X3568452Y848269D01*
X3523274Y832104D01*
X3476728Y820445D01*
X3429264Y813404D01*
X3381339Y811050D01*
X1218661Y811050D01*
X1170736Y813404D01*
G37*
%TO.C,kibuzzard-63243463*%
G36*
X15300000Y6678219D02*
G01*
X14817162Y7000111D01*
X14817162Y7527806D01*
X14956068Y7527806D01*
X14956068Y7391122D01*
X15227213Y7391122D01*
X15227213Y7208877D01*
X14956068Y7208877D01*
X14956068Y7072194D01*
X15643932Y7072194D01*
X15643932Y7208877D01*
X15340561Y7208877D01*
X15340561Y7391122D01*
X15643932Y7391122D01*
X15643932Y7527806D01*
X14956068Y7527806D01*
X14817162Y7527806D01*
X14817162Y7599889D01*
X15300000Y7921781D01*
X15782838Y7599889D01*
X15782838Y7000111D01*
X15300000Y6678219D01*
G37*
%TO.C,kibuzzard-63243772*%
G36*
X14700501Y11751538D02*
G01*
X17399499Y11751538D01*
X17399499Y10848462D01*
X14700501Y10848462D01*
X14700501Y10955513D01*
X15235454Y10955513D01*
X15377694Y10955513D01*
X15408809Y11114421D01*
X15592165Y11114421D01*
X15624391Y10955513D01*
X15771076Y10955513D01*
X15752741Y11033500D01*
X15734183Y11109221D01*
X15715403Y11182674D01*
X15696400Y11253861D01*
X15683530Y11300000D01*
X15811081Y11300000D01*
X15815874Y11218809D01*
X15830250Y11147481D01*
X15854212Y11086015D01*
X15887758Y11034411D01*
X15946530Y10982553D01*
X16020614Y10951438D01*
X16110008Y10941066D01*
X16170710Y10944817D01*
X16223911Y10956068D01*
X16302254Y10988850D01*
X16267805Y11096641D01*
X16211687Y11072194D01*
X16123343Y11059970D01*
X16044027Y11075666D01*
X15990548Y11122756D01*
X15968014Y11170725D01*
X15954494Y11230917D01*
X15949988Y11303334D01*
X15953738Y11365564D01*
X15964989Y11416681D01*
X16003883Y11489468D01*
X16058334Y11528362D01*
X16121120Y11540030D01*
X16203908Y11528362D01*
X16265583Y11500025D01*
X16275380Y11530029D01*
X16364484Y11530029D01*
X16545618Y11530029D01*
X16545618Y10955513D01*
X16683413Y10955513D01*
X16683413Y11530029D01*
X16864546Y11530029D01*
X16864546Y11643376D01*
X16364484Y11643376D01*
X16364484Y11530029D01*
X16275380Y11530029D01*
X16301143Y11608928D01*
X16278362Y11622263D01*
X16241135Y11638931D01*
X16189462Y11652822D01*
X16123343Y11658934D01*
X16058195Y11652961D01*
X15998327Y11635042D01*
X15944987Y11605594D01*
X15899426Y11565033D01*
X15862338Y11513777D01*
X15834418Y11452241D01*
X15816915Y11380843D01*
X15811081Y11300000D01*
X15683530Y11300000D01*
X15677176Y11322781D01*
X15652971Y11406367D01*
X15628697Y11487662D01*
X15604354Y11566665D01*
X15579941Y11643376D01*
X15431034Y11643376D01*
X15407489Y11567290D01*
X15383528Y11489051D01*
X15359150Y11408659D01*
X15334355Y11326114D01*
X15314397Y11257773D01*
X15294528Y11186541D01*
X15274748Y11112421D01*
X15255056Y11035411D01*
X15235454Y10955513D01*
X14700501Y10955513D01*
X14700501Y11751538D01*
G37*
G36*
X15522712Y11436128D02*
G01*
X15540492Y11367231D01*
X15555494Y11298889D01*
X15568829Y11227769D01*
X15434368Y11227769D01*
X15448258Y11298889D01*
X15463816Y11367231D01*
X15481596Y11436128D01*
X15502154Y11510026D01*
X15522712Y11436128D01*
G37*
%TD*%
M02*
