%TF.GenerationSoftware,KiCad,Pcbnew,6.0.7+dfsg-1~bpo11+1*%
%TF.CreationDate,2022-09-24T09:45:49+00:00*%
%TF.ProjectId,0101-PUSH,30313031-2d50-4555-9348-2e6b69636164,V1.1*%
%TF.SameCoordinates,Original*%
%TF.FileFunction,Copper,L2,Bot*%
%TF.FilePolarity,Positive*%
%FSLAX46Y46*%
G04 Gerber Fmt 4.6, Leading zero omitted, Abs format (unit mm)*
G04 Created by KiCad (PCBNEW 6.0.7+dfsg-1~bpo11+1) date 2022-09-24 09:45:49*
%MOMM*%
%LPD*%
G01*
G04 APERTURE LIST*
%TA.AperFunction,ComponentPad*%
%ADD10R,1.700000X1.700000*%
%TD*%
%TA.AperFunction,ComponentPad*%
%ADD11O,1.700000X1.700000*%
%TD*%
%TA.AperFunction,ComponentPad*%
%ADD12R,1.300000X1.300000*%
%TD*%
%TA.AperFunction,ComponentPad*%
%ADD13C,1.400000*%
%TD*%
%TA.AperFunction,ViaPad*%
%ADD14C,0.500000*%
%TD*%
%TA.AperFunction,Conductor*%
%ADD15C,0.200000*%
%TD*%
%TA.AperFunction,Conductor*%
%ADD16C,0.350000*%
%TD*%
G04 APERTURE END LIST*
D10*
%TO.P,J1,1,Pin_1*%
%TO.N,VCC*%
X7260000Y15800000D03*
D11*
%TO.P,J1,2,Pin_2*%
%TO.N,/KEY*%
X9800000Y15800000D03*
%TO.P,J1,3,Pin_3*%
%TO.N,GND*%
X12340000Y15800000D03*
%TD*%
D12*
%TO.P,SW1,1,A*%
%TO.N,unconnected-(SW1-Pad1)*%
X12500000Y4800000D03*
D13*
%TO.P,SW1,2,B*%
%TO.N,/KEY*%
X12500000Y7300000D03*
%TO.P,SW1,3,C*%
%TO.N,Net-(R3-Pad2)*%
X12500000Y9800000D03*
%TO.P,SW1,4,A*%
%TO.N,unconnected-(SW1-Pad4)*%
X7100000Y4800000D03*
%TO.P,SW1,5,B*%
%TO.N,Net-(R5-Pad2)*%
X7100000Y7300000D03*
%TO.P,SW1,6,C*%
%TO.N,VCC*%
X7100000Y9800000D03*
%TD*%
D14*
%TO.N,GND*%
X18300000Y6300000D03*
X14400000Y9400000D03*
X17800000Y16800000D03*
X14400000Y7300000D03*
X8800000Y9800000D03*
X10300000Y7300000D03*
X18300000Y8300000D03*
X8800000Y10800000D03*
X1800000Y14300000D03*
X10800000Y10800000D03*
X11800000Y18300000D03*
X16800000Y1800000D03*
X2800000Y15300000D03*
X18300000Y7300000D03*
X17800000Y17800000D03*
X6800000Y18300000D03*
X2800000Y14300000D03*
X9300000Y7300000D03*
X3300000Y2800000D03*
X16800000Y17800000D03*
X4300000Y2800000D03*
X7800000Y18300000D03*
X17800000Y1800000D03*
X16800000Y16800000D03*
X1800000Y15300000D03*
X12800000Y18300000D03*
%TD*%
D15*
%TO.N,/KEY*%
X9800000Y10000000D02*
X12500000Y7300000D01*
X9800000Y15800000D02*
X9800000Y10000000D01*
D16*
%TO.N,VCC*%
X7260000Y12260000D02*
X7100000Y12100000D01*
X7100000Y12100000D02*
X7100000Y9800000D01*
X7260000Y15800000D02*
X7260000Y12260000D01*
%TD*%
%TA.AperFunction,Conductor*%
%TO.N,GND*%
G36*
X8553332Y19429498D02*
G01*
X8599825Y19375842D01*
X8601115Y19372667D01*
X8601476Y19371320D01*
X8687324Y19181795D01*
X8690190Y19177505D01*
X8746090Y19093828D01*
X8802901Y19008786D01*
X8945119Y18856918D01*
X9110178Y18730247D01*
X9293668Y18632159D01*
X9298545Y18630503D01*
X9298548Y18630502D01*
X9485802Y18566931D01*
X9490686Y18565273D01*
X9695969Y18531377D01*
X9904031Y18531377D01*
X10109314Y18565273D01*
X10114198Y18566931D01*
X10301452Y18630502D01*
X10301455Y18630503D01*
X10306332Y18632159D01*
X10489822Y18730247D01*
X10654881Y18856918D01*
X10797099Y19008786D01*
X10853911Y19093828D01*
X10909810Y19177505D01*
X10912676Y19181795D01*
X10963341Y19293646D01*
X10998524Y19371320D01*
X10999686Y19370793D01*
X11037922Y19423337D01*
X11104100Y19449046D01*
X11114789Y19449500D01*
X18763598Y19449500D01*
X18771315Y19448484D01*
X18783978Y19448484D01*
X18800000Y19444191D01*
X18813583Y19447830D01*
X18816043Y19447692D01*
X18930420Y19434805D01*
X18957928Y19428526D01*
X19068407Y19389868D01*
X19093820Y19377631D01*
X19192943Y19315349D01*
X19214998Y19297759D01*
X19297759Y19214998D01*
X19315349Y19192943D01*
X19377631Y19093820D01*
X19389868Y19068407D01*
X19428526Y18957928D01*
X19434805Y18930420D01*
X19447692Y18816043D01*
X19447830Y18813583D01*
X19444191Y18800000D01*
X19448484Y18783978D01*
X19448484Y18771315D01*
X19449500Y18763598D01*
X19449501Y14903449D01*
X19449501Y11114788D01*
X19429499Y11046667D01*
X19375843Y11000174D01*
X19372663Y10998882D01*
X19371322Y10998523D01*
X19181796Y10912676D01*
X19177506Y10909810D01*
X19013075Y10799964D01*
X19013071Y10799961D01*
X19008787Y10797099D01*
X18856919Y10654881D01*
X18730248Y10489822D01*
X18632160Y10306332D01*
X18630504Y10301455D01*
X18630503Y10301452D01*
X18576218Y10141550D01*
X18565274Y10109314D01*
X18531378Y9904031D01*
X18531378Y9695969D01*
X18565274Y9490686D01*
X18566932Y9485803D01*
X18566932Y9485802D01*
X18607161Y9367306D01*
X18632160Y9293668D01*
X18730248Y9110178D01*
X18856919Y8945119D01*
X19008787Y8802901D01*
X19013071Y8800039D01*
X19013075Y8800036D01*
X19124135Y8725844D01*
X19181796Y8687324D01*
X19186495Y8685196D01*
X19186496Y8685195D01*
X19371322Y8601477D01*
X19370794Y8600312D01*
X19423333Y8562085D01*
X19449046Y8495908D01*
X19449501Y8485212D01*
X19449500Y836402D01*
X19448484Y828685D01*
X19448484Y816022D01*
X19444191Y800000D01*
X19447830Y786417D01*
X19447692Y783957D01*
X19434805Y669580D01*
X19428526Y642072D01*
X19389868Y531593D01*
X19377631Y506180D01*
X19315349Y407057D01*
X19297759Y385002D01*
X19214998Y302241D01*
X19192943Y284651D01*
X19093820Y222369D01*
X19068407Y210132D01*
X18957928Y171474D01*
X18930420Y165195D01*
X18816043Y152308D01*
X18813583Y152170D01*
X18800000Y155809D01*
X18783978Y151516D01*
X18771315Y151516D01*
X18763598Y150500D01*
X11114789Y150500D01*
X11046668Y170502D01*
X11000175Y224158D01*
X10998885Y227333D01*
X10998524Y228680D01*
X10912676Y418205D01*
X10888477Y454429D01*
X10799964Y586926D01*
X10799961Y586930D01*
X10797099Y591214D01*
X10654881Y743082D01*
X10489822Y869753D01*
X10306332Y967841D01*
X10301455Y969497D01*
X10301452Y969498D01*
X10114198Y1033069D01*
X10114197Y1033069D01*
X10109314Y1034727D01*
X9904031Y1068623D01*
X9695969Y1068623D01*
X9490686Y1034727D01*
X9485803Y1033069D01*
X9485802Y1033069D01*
X9298548Y969498D01*
X9298545Y969497D01*
X9293668Y967841D01*
X9110178Y869753D01*
X8945119Y743082D01*
X8802901Y591214D01*
X8800039Y586930D01*
X8800036Y586926D01*
X8711523Y454429D01*
X8687324Y418205D01*
X8685195Y413505D01*
X8685194Y413503D01*
X8634796Y302241D01*
X8601476Y228680D01*
X8600314Y229207D01*
X8562078Y176663D01*
X8495900Y150954D01*
X8485211Y150500D01*
X836402Y150500D01*
X828685Y151516D01*
X816022Y151516D01*
X800000Y155809D01*
X786417Y152170D01*
X783957Y152308D01*
X669580Y165195D01*
X642072Y171474D01*
X531593Y210132D01*
X506180Y222369D01*
X407057Y284651D01*
X385002Y302241D01*
X302241Y385002D01*
X284651Y407057D01*
X222369Y506180D01*
X210132Y531593D01*
X171474Y642072D01*
X165195Y669580D01*
X152308Y783957D01*
X152170Y786417D01*
X155809Y800000D01*
X151516Y816022D01*
X151516Y828685D01*
X150500Y836402D01*
X150500Y4800000D01*
X6244815Y4800000D01*
X6263503Y4622197D01*
X6318750Y4452165D01*
X6408141Y4297335D01*
X6527770Y4164474D01*
X6533109Y4160595D01*
X6642719Y4080958D01*
X6672407Y4059388D01*
X6678435Y4056704D01*
X6678437Y4056703D01*
X6792741Y4005812D01*
X6835733Y3986671D01*
X6923171Y3968086D01*
X7004152Y3950872D01*
X7004156Y3950872D01*
X7010609Y3949500D01*
X7189391Y3949500D01*
X7195844Y3950872D01*
X7195848Y3950872D01*
X7276829Y3968086D01*
X7364267Y3986671D01*
X7407259Y4005812D01*
X7521563Y4056703D01*
X7521565Y4056704D01*
X7527593Y4059388D01*
X7557282Y4080958D01*
X7631911Y4135180D01*
X11699500Y4135180D01*
X11708233Y4091278D01*
X11715127Y4080960D01*
X11715128Y4080958D01*
X11726948Y4063269D01*
X11741496Y4041496D01*
X11751815Y4034601D01*
X11780958Y4015128D01*
X11780960Y4015127D01*
X11791278Y4008233D01*
X11835180Y3999500D01*
X13164820Y3999500D01*
X13208722Y4008233D01*
X13219040Y4015127D01*
X13219042Y4015128D01*
X13248185Y4034601D01*
X13258504Y4041496D01*
X13273052Y4063269D01*
X13284872Y4080958D01*
X13284873Y4080960D01*
X13291767Y4091278D01*
X13300500Y4135180D01*
X13300500Y5464820D01*
X13291767Y5508722D01*
X13284873Y5519040D01*
X13284872Y5519042D01*
X13265399Y5548185D01*
X13258504Y5558504D01*
X13248185Y5565399D01*
X13219042Y5584872D01*
X13219040Y5584873D01*
X13208722Y5591767D01*
X13164820Y5600500D01*
X11835180Y5600500D01*
X11791278Y5591767D01*
X11780960Y5584873D01*
X11780958Y5584872D01*
X11751815Y5565399D01*
X11741496Y5558504D01*
X11734601Y5548185D01*
X11715128Y5519042D01*
X11715127Y5519040D01*
X11708233Y5508722D01*
X11699500Y5464820D01*
X11699500Y4135180D01*
X7631911Y4135180D01*
X7666891Y4160595D01*
X7672230Y4164474D01*
X7791859Y4297335D01*
X7881250Y4452165D01*
X7936497Y4622197D01*
X7955185Y4800000D01*
X7936497Y4977803D01*
X7881250Y5147835D01*
X7791859Y5302665D01*
X7672230Y5435526D01*
X7588237Y5496551D01*
X7532935Y5536731D01*
X7532933Y5536732D01*
X7527593Y5540612D01*
X7521565Y5543296D01*
X7521563Y5543297D01*
X7370298Y5610644D01*
X7370297Y5610644D01*
X7364267Y5613329D01*
X7276829Y5631914D01*
X7195848Y5649128D01*
X7195844Y5649128D01*
X7189391Y5650500D01*
X7010609Y5650500D01*
X7004156Y5649128D01*
X7004152Y5649128D01*
X6923171Y5631914D01*
X6835733Y5613329D01*
X6829703Y5610644D01*
X6829702Y5610644D01*
X6678438Y5543297D01*
X6678436Y5543296D01*
X6672408Y5540612D01*
X6667067Y5536732D01*
X6667066Y5536731D01*
X6628515Y5508722D01*
X6527770Y5435526D01*
X6408141Y5302665D01*
X6318750Y5147835D01*
X6263503Y4977803D01*
X6244815Y4800000D01*
X150500Y4800000D01*
X150500Y7300000D01*
X6244815Y7300000D01*
X6263503Y7122197D01*
X6318750Y6952165D01*
X6408141Y6797335D01*
X6527770Y6664474D01*
X6672407Y6559388D01*
X6678435Y6556704D01*
X6678437Y6556703D01*
X6829702Y6489356D01*
X6835733Y6486671D01*
X6923171Y6468085D01*
X7004152Y6450872D01*
X7004156Y6450872D01*
X7010609Y6449500D01*
X7189391Y6449500D01*
X7195844Y6450872D01*
X7195848Y6450872D01*
X7276829Y6468086D01*
X7364267Y6486671D01*
X7370298Y6489356D01*
X7521563Y6556703D01*
X7521565Y6556704D01*
X7527593Y6559388D01*
X7672230Y6664474D01*
X7791859Y6797335D01*
X7881250Y6952165D01*
X7936497Y7122197D01*
X7955185Y7300000D01*
X7936497Y7477803D01*
X7881250Y7647835D01*
X7852278Y7698017D01*
X7795162Y7796944D01*
X7791859Y7802665D01*
X7672230Y7935526D01*
X7527593Y8040612D01*
X7521565Y8043296D01*
X7521563Y8043297D01*
X7370298Y8110644D01*
X7370297Y8110644D01*
X7364267Y8113329D01*
X7276829Y8131914D01*
X7195848Y8149128D01*
X7195844Y8149128D01*
X7189391Y8150500D01*
X7010609Y8150500D01*
X7004156Y8149128D01*
X7004152Y8149128D01*
X6923171Y8131914D01*
X6835733Y8113329D01*
X6829703Y8110644D01*
X6829702Y8110644D01*
X6678438Y8043297D01*
X6678436Y8043296D01*
X6672408Y8040612D01*
X6527770Y7935526D01*
X6408141Y7802665D01*
X6404838Y7796944D01*
X6347723Y7698017D01*
X6318750Y7647835D01*
X6263503Y7477803D01*
X6244815Y7300000D01*
X150500Y7300000D01*
X150500Y8485211D01*
X170502Y8553332D01*
X224158Y8599825D01*
X227333Y8601115D01*
X228680Y8601476D01*
X418205Y8687324D01*
X475866Y8725844D01*
X586926Y8800036D01*
X586930Y8800039D01*
X591214Y8802901D01*
X743082Y8945119D01*
X869753Y9110178D01*
X967841Y9293668D01*
X992841Y9367306D01*
X1033069Y9485802D01*
X1033069Y9485803D01*
X1034727Y9490686D01*
X1068623Y9695969D01*
X1068623Y9800000D01*
X6244815Y9800000D01*
X6263503Y9622197D01*
X6318750Y9452165D01*
X6408141Y9297335D01*
X6527770Y9164474D01*
X6533109Y9160595D01*
X6608131Y9106088D01*
X6672407Y9059388D01*
X6678435Y9056704D01*
X6678437Y9056703D01*
X6829702Y8989356D01*
X6835733Y8986671D01*
X6923171Y8968086D01*
X7004152Y8950872D01*
X7004156Y8950872D01*
X7010609Y8949500D01*
X7189391Y8949500D01*
X7195844Y8950872D01*
X7195848Y8950872D01*
X7276829Y8968085D01*
X7364267Y8986671D01*
X7370298Y8989356D01*
X7521563Y9056703D01*
X7521565Y9056704D01*
X7527593Y9059388D01*
X7591870Y9106088D01*
X7666891Y9160595D01*
X7672230Y9164474D01*
X7791859Y9297335D01*
X7881250Y9452165D01*
X7936497Y9622197D01*
X7955185Y9800000D01*
X7936497Y9977803D01*
X7933240Y9987829D01*
X7883292Y10141550D01*
X7881250Y10147835D01*
X7791859Y10302665D01*
X7672230Y10435526D01*
X7597499Y10489822D01*
X7532935Y10536731D01*
X7532933Y10536732D01*
X7527593Y10540612D01*
X7500250Y10552786D01*
X7446155Y10598765D01*
X7425500Y10667892D01*
X7425500Y11912983D01*
X7445502Y11981104D01*
X7462405Y12002078D01*
X7476222Y12015895D01*
X7484326Y12023322D01*
X7504750Y12040460D01*
X7513194Y12047545D01*
X7518704Y12057088D01*
X7518707Y12057092D01*
X7532036Y12080179D01*
X7537941Y12089449D01*
X7539218Y12091272D01*
X7559554Y12120316D01*
X7562407Y12130964D01*
X7563886Y12134135D01*
X7565078Y12137411D01*
X7570588Y12146955D01*
X7577134Y12184076D01*
X7579508Y12194783D01*
X7589263Y12231193D01*
X7585979Y12268731D01*
X7585500Y12279712D01*
X7585500Y14673500D01*
X7605502Y14741621D01*
X7659158Y14788114D01*
X7711500Y14799500D01*
X8124820Y14799500D01*
X8168722Y14808233D01*
X8179040Y14815127D01*
X8179042Y14815128D01*
X8208185Y14834601D01*
X8218504Y14841496D01*
X8228763Y14856850D01*
X8244872Y14880958D01*
X8244873Y14880960D01*
X8251767Y14891278D01*
X8260500Y14935180D01*
X8260500Y15814037D01*
X8794757Y15814037D01*
X8811175Y15618517D01*
X8865258Y15429909D01*
X8868076Y15424426D01*
X8952123Y15260887D01*
X8952126Y15260883D01*
X8954944Y15255399D01*
X9076818Y15101631D01*
X9226238Y14974465D01*
X9231616Y14971459D01*
X9231618Y14971458D01*
X9267932Y14951163D01*
X9397513Y14878743D01*
X9462438Y14857647D01*
X9521042Y14817574D01*
X9548679Y14752178D01*
X9549500Y14737815D01*
X9549500Y10037085D01*
X9547079Y10012504D01*
X9544592Y10000000D01*
X9564034Y9902259D01*
X9570926Y9891944D01*
X9570927Y9891942D01*
X9572499Y9889590D01*
X9575798Y9884653D01*
X9619399Y9819399D01*
X9629714Y9812507D01*
X9629716Y9812505D01*
X9630005Y9812312D01*
X9649098Y9796642D01*
X11683564Y7762175D01*
X11717590Y7699863D01*
X11714302Y7634146D01*
X11663503Y7477803D01*
X11644815Y7300000D01*
X11663503Y7122197D01*
X11718750Y6952165D01*
X11808141Y6797335D01*
X11927770Y6664474D01*
X12072407Y6559388D01*
X12078435Y6556704D01*
X12078437Y6556703D01*
X12229702Y6489356D01*
X12235733Y6486671D01*
X12323171Y6468085D01*
X12404152Y6450872D01*
X12404156Y6450872D01*
X12410609Y6449500D01*
X12589391Y6449500D01*
X12595844Y6450872D01*
X12595848Y6450872D01*
X12676829Y6468086D01*
X12764267Y6486671D01*
X12770298Y6489356D01*
X12921563Y6556703D01*
X12921565Y6556704D01*
X12927593Y6559388D01*
X13072230Y6664474D01*
X13191859Y6797335D01*
X13281250Y6952165D01*
X13336497Y7122197D01*
X13355185Y7300000D01*
X13336497Y7477803D01*
X13281250Y7647835D01*
X13252278Y7698017D01*
X13195162Y7796944D01*
X13191859Y7802665D01*
X13072230Y7935526D01*
X12927593Y8040612D01*
X12921565Y8043296D01*
X12921563Y8043297D01*
X12770298Y8110644D01*
X12770297Y8110644D01*
X12764267Y8113329D01*
X12676829Y8131914D01*
X12595848Y8149128D01*
X12595844Y8149128D01*
X12589391Y8150500D01*
X12410609Y8150500D01*
X12404156Y8149128D01*
X12404152Y8149128D01*
X12323171Y8131914D01*
X12235733Y8113329D01*
X12229703Y8110644D01*
X12229702Y8110644D01*
X12180054Y8088539D01*
X12109687Y8079105D01*
X12045390Y8109211D01*
X12039710Y8114551D01*
X10354260Y9800000D01*
X11644815Y9800000D01*
X11663503Y9622197D01*
X11718750Y9452165D01*
X11808141Y9297335D01*
X11927770Y9164474D01*
X11933109Y9160595D01*
X12008131Y9106088D01*
X12072407Y9059388D01*
X12078435Y9056704D01*
X12078437Y9056703D01*
X12229702Y8989356D01*
X12235733Y8986671D01*
X12323171Y8968086D01*
X12404152Y8950872D01*
X12404156Y8950872D01*
X12410609Y8949500D01*
X12589391Y8949500D01*
X12595844Y8950872D01*
X12595848Y8950872D01*
X12676829Y8968085D01*
X12764267Y8986671D01*
X12770298Y8989356D01*
X12921563Y9056703D01*
X12921565Y9056704D01*
X12927593Y9059388D01*
X12991870Y9106088D01*
X13066891Y9160595D01*
X13072230Y9164474D01*
X13191859Y9297335D01*
X13281250Y9452165D01*
X13336497Y9622197D01*
X13355185Y9800000D01*
X13336497Y9977803D01*
X13333240Y9987829D01*
X13283292Y10141550D01*
X13281250Y10147835D01*
X13191859Y10302665D01*
X13072230Y10435526D01*
X12997499Y10489822D01*
X12932935Y10536731D01*
X12932933Y10536732D01*
X12927593Y10540612D01*
X12921565Y10543296D01*
X12921563Y10543297D01*
X12770298Y10610644D01*
X12770297Y10610644D01*
X12764267Y10613329D01*
X12676829Y10631914D01*
X12595848Y10649128D01*
X12595844Y10649128D01*
X12589391Y10650500D01*
X12410609Y10650500D01*
X12404156Y10649128D01*
X12404152Y10649128D01*
X12323171Y10631914D01*
X12235733Y10613329D01*
X12229703Y10610644D01*
X12229702Y10610644D01*
X12078438Y10543297D01*
X12078436Y10543296D01*
X12072408Y10540612D01*
X12067067Y10536732D01*
X12067066Y10536731D01*
X12008131Y10493912D01*
X11927770Y10435526D01*
X11808141Y10302665D01*
X11718750Y10147835D01*
X11716708Y10141550D01*
X11666761Y9987829D01*
X11663503Y9977803D01*
X11644815Y9800000D01*
X10354260Y9800000D01*
X10087405Y10066855D01*
X10053380Y10129167D01*
X10050500Y10155950D01*
X10050500Y14735492D01*
X10070502Y14803613D01*
X10124158Y14850106D01*
X10142612Y14856849D01*
X10163556Y14862697D01*
X10338689Y14951163D01*
X10368515Y14974465D01*
X10488453Y15068171D01*
X10493303Y15071960D01*
X10523084Y15106461D01*
X10617485Y15215827D01*
X10617485Y15215828D01*
X10621509Y15220489D01*
X10718425Y15391091D01*
X10765973Y15534025D01*
X11375923Y15534025D01*
X11404025Y15436020D01*
X11408543Y15424608D01*
X11492546Y15261156D01*
X11499196Y15250838D01*
X11613350Y15106811D01*
X11621873Y15097985D01*
X11761833Y14978871D01*
X11771905Y14971870D01*
X11932334Y14882210D01*
X11943574Y14877299D01*
X12068769Y14836621D01*
X12082867Y14836218D01*
X12086000Y14842590D01*
X12086000Y14850742D01*
X12594000Y14850742D01*
X12597973Y14837211D01*
X12606188Y14836030D01*
X12697430Y14861505D01*
X12708881Y14865947D01*
X12872919Y14948807D01*
X12883276Y14955380D01*
X13028100Y15068530D01*
X13036986Y15076991D01*
X13157070Y15216110D01*
X13164144Y15226138D01*
X13254919Y15385932D01*
X13259913Y15397148D01*
X13303712Y15528811D01*
X13304213Y15542903D01*
X13298024Y15546000D01*
X12612115Y15546000D01*
X12596876Y15541525D01*
X12595671Y15540135D01*
X12594000Y15532452D01*
X12594000Y14850742D01*
X12086000Y14850742D01*
X12086000Y15527885D01*
X12081525Y15543124D01*
X12080135Y15544329D01*
X12072452Y15546000D01*
X11390604Y15546000D01*
X11377073Y15542027D01*
X11375923Y15534025D01*
X10765973Y15534025D01*
X10780358Y15577268D01*
X10804949Y15771929D01*
X10805341Y15800000D01*
X10786194Y15995272D01*
X10784413Y16001171D01*
X10784412Y16001176D01*
X10767507Y16057168D01*
X11376594Y16057168D01*
X11383153Y16054000D01*
X12067885Y16054000D01*
X12083124Y16058475D01*
X12084329Y16059865D01*
X12086000Y16067548D01*
X12086000Y16072115D01*
X12594000Y16072115D01*
X12598475Y16056876D01*
X12599865Y16055671D01*
X12607548Y16054000D01*
X13289826Y16054000D01*
X13303357Y16057973D01*
X13304449Y16065567D01*
X13270801Y16177015D01*
X13266126Y16188356D01*
X13179846Y16350627D01*
X13173059Y16360843D01*
X13056899Y16503269D01*
X13048255Y16511973D01*
X12906649Y16629120D01*
X12896478Y16635980D01*
X12734809Y16723394D01*
X12723504Y16728146D01*
X12611308Y16762876D01*
X12597205Y16763082D01*
X12594000Y16756327D01*
X12594000Y16072115D01*
X12086000Y16072115D01*
X12086000Y16749586D01*
X12082027Y16763117D01*
X12074232Y16764237D01*
X11969496Y16733411D01*
X11958119Y16728814D01*
X11795247Y16643667D01*
X11784986Y16636953D01*
X11641751Y16521789D01*
X11632992Y16513211D01*
X11514853Y16372419D01*
X11507927Y16362305D01*
X11419383Y16201243D01*
X11414555Y16189979D01*
X11376898Y16071269D01*
X11376594Y16057168D01*
X10767507Y16057168D01*
X10731265Y16177207D01*
X10729484Y16183106D01*
X10637370Y16356347D01*
X10513361Y16508398D01*
X10362180Y16633465D01*
X10189585Y16726787D01*
X10073000Y16762876D01*
X10008039Y16782985D01*
X10008036Y16782986D01*
X10002152Y16784807D01*
X9996027Y16785451D01*
X9996026Y16785451D01*
X9813147Y16804673D01*
X9813146Y16804673D01*
X9807019Y16805317D01*
X9684733Y16794188D01*
X9617759Y16788093D01*
X9617758Y16788093D01*
X9611618Y16787534D01*
X9605704Y16785793D01*
X9605702Y16785793D01*
X9528538Y16763082D01*
X9423393Y16732136D01*
X9417928Y16729279D01*
X9254972Y16644088D01*
X9254968Y16644085D01*
X9249512Y16641233D01*
X9244712Y16637373D01*
X9244711Y16637373D01*
X9234446Y16629120D01*
X9096600Y16518289D01*
X8970480Y16367984D01*
X8967516Y16362592D01*
X8967513Y16362588D01*
X8888813Y16219433D01*
X8875956Y16196046D01*
X8874095Y16190179D01*
X8874094Y16190177D01*
X8871851Y16183106D01*
X8816628Y16009022D01*
X8794757Y15814037D01*
X8260500Y15814037D01*
X8260500Y16664820D01*
X8251767Y16708722D01*
X8244873Y16719040D01*
X8244872Y16719042D01*
X8225399Y16748185D01*
X8218504Y16758504D01*
X8208185Y16765399D01*
X8179042Y16784872D01*
X8179040Y16784873D01*
X8168722Y16791767D01*
X8124820Y16800500D01*
X6395180Y16800500D01*
X6351278Y16791767D01*
X6340960Y16784873D01*
X6340958Y16784872D01*
X6311815Y16765399D01*
X6301496Y16758504D01*
X6294601Y16748185D01*
X6275128Y16719042D01*
X6275127Y16719040D01*
X6268233Y16708722D01*
X6259500Y16664820D01*
X6259500Y14935180D01*
X6268233Y14891278D01*
X6275127Y14880960D01*
X6275128Y14880958D01*
X6291237Y14856850D01*
X6301496Y14841496D01*
X6311815Y14834601D01*
X6340958Y14815128D01*
X6340960Y14815127D01*
X6351278Y14808233D01*
X6395180Y14799500D01*
X6808500Y14799500D01*
X6876621Y14779498D01*
X6923114Y14725842D01*
X6934500Y14673500D01*
X6934500Y12447016D01*
X6914498Y12378895D01*
X6897595Y12357921D01*
X6883784Y12344110D01*
X6875680Y12336683D01*
X6846806Y12312455D01*
X6841293Y12302906D01*
X6827961Y12279815D01*
X6822055Y12270544D01*
X6800446Y12239684D01*
X6797592Y12229034D01*
X6796115Y12225866D01*
X6794923Y12222590D01*
X6789412Y12213045D01*
X6784304Y12184072D01*
X6782870Y12175942D01*
X6780492Y12165215D01*
X6770736Y12128807D01*
X6771697Y12117822D01*
X6771697Y12117820D01*
X6774020Y12091272D01*
X6774500Y12080290D01*
X6774500Y10667892D01*
X6754498Y10599771D01*
X6699749Y10552785D01*
X6678438Y10543297D01*
X6678436Y10543296D01*
X6672408Y10540612D01*
X6667067Y10536732D01*
X6667066Y10536731D01*
X6608131Y10493912D01*
X6527770Y10435526D01*
X6408141Y10302665D01*
X6318750Y10147835D01*
X6316708Y10141550D01*
X6266761Y9987829D01*
X6263503Y9977803D01*
X6244815Y9800000D01*
X1068623Y9800000D01*
X1068623Y9904031D01*
X1034727Y10109314D01*
X1023783Y10141550D01*
X969498Y10301452D01*
X969497Y10301455D01*
X967841Y10306332D01*
X869753Y10489822D01*
X743082Y10654881D01*
X591214Y10797099D01*
X586930Y10799961D01*
X586926Y10799964D01*
X422495Y10909810D01*
X418205Y10912676D01*
X384660Y10927871D01*
X228680Y10998524D01*
X229207Y10999686D01*
X176663Y11037922D01*
X150954Y11104100D01*
X150500Y11114789D01*
X150500Y18763598D01*
X151516Y18771315D01*
X151516Y18783978D01*
X155809Y18800000D01*
X152170Y18813583D01*
X152308Y18816043D01*
X165195Y18930420D01*
X171474Y18957928D01*
X210132Y19068407D01*
X222369Y19093820D01*
X284651Y19192943D01*
X302241Y19214998D01*
X385002Y19297759D01*
X407057Y19315349D01*
X506180Y19377631D01*
X531593Y19389868D01*
X642072Y19428526D01*
X669580Y19434805D01*
X783957Y19447692D01*
X786417Y19447830D01*
X800000Y19444191D01*
X816022Y19448484D01*
X828685Y19448484D01*
X836402Y19449500D01*
X8485211Y19449500D01*
X8553332Y19429498D01*
G37*
%TD.AperFunction*%
%TD*%
M02*
